  0
SECTION
  2
HEADER
  9
$ACADVER
  1
AC1009
  9
$FILLMODE
 70
1
  9
$EXTMIN
 10
-3.2422
 20
-0.8060
 30
0.0000
  9
$EXTMAX
 10
102.7524
 20
84.2903
 30
0.0000
  0
ENDSEC
  0
SECTION
  2
TABLES
  0
TABLE
  2
LTYPE
 70
1
  0
LTYPE
  2
CONTINUOUS
 70
64
  3
Solid line
 72
65
 73
0
 40
0
  0
ENDTAB
  0
TABLE
  2
LAYER
 70
255
  0
LAYER
  2
17
 70
64
 62
82
  6
CONTINUOUS
  0
LAYER
  2
18
 70
64
 62
82
  6
CONTINUOUS
  0
LAYER
  2
20
 70
64
 62
7
  6
CONTINUOUS
  0
ENDTAB
  0
ENDSEC
  0
SECTION
  2
BLOCKS
  0
BLOCK
  8
0
  2
RECT
 70
64
 10
0.0000
 20
0.0000
 30
0.0000
  3
RECT
  0
SOLID
  8
0
 10
-0.5000
 20
-0.5000
 30
0.0000
 11
0.5000
 21
-0.5000
 31
0.0000
 12
-0.5000
 22
0.5000
 32
0.0000
 13
0.5000
 23
0.5000
 33
0.0000
  0
ENDBLK
  8
0
  0
BLOCK
  8
0
  2
PIE
 70
64
 10
0.0000
 20
0.0000
 30
0.0000
  3
PIE
  0
POLYLINE
  8
0
 66
1
 10
0.0000
 20
0.0000
 30
0.0000
 40
0.5000
 41
0.5000
 70
0
  0
VERTEX
  8
0
 10
0.0000
 20
-0.2500
 30
0.0000
 42
1.0000
  0
VERTEX
  8
0
 10
0.0000
 20
0.2500
 30
0.0000
 42
1.0000
  0
VERTEX
  8
0
 10
0.0000
 20
-0.2500
 30
0.0000
  0
SEQEND
  8
0
  0
ENDBLK
  8
0
  0
BLOCK
  8
0
  2
OCTAGONP
 70
64
 10
0.0000
 20
0.0000
 30
0.0000
  3
OCTAGONP
  0
POLYLINE
  8
0
 66
1
 10
0.0000
 20
0.0000
 30
0.0000
 40
0.5000
 41
0.5000
 70
0
  0
VERTEX
  8
0
 10
-0.2500
 20
-0.1036
 30
0.0000
  0
VERTEX
  8
0
 10
-0.2500
 20
0.1036
 30
0.0000
  0
VERTEX
  8
0
 10
-0.1036
 20
0.2500
 30
0.0000
  0
VERTEX
  8
0
 10
0.1036
 20
0.2500
 30
0.0000
  0
VERTEX
  8
0
 10
0.2500
 20
0.1036
 30
0.0000
  0
VERTEX
  8
0
 10
0.2500
 20
-0.1036
 30
0.0000
  0
VERTEX
  8
0
 10
0.1036
 20
-0.2500
 30
0.0000
  0
VERTEX
  8
0
 10
-0.1036
 20
-0.2500
 30
0.0000
  0
VERTEX
  8
0
 10
-0.2500
 20
-0.1036
 30
0.0000
  0
VERTEX
  8
0
 10
-0.2500
 20
0.1036
 30
0.0000
  0
SEQEND
  8
0
  0
ENDBLK
  8
0
  0
BLOCK
  8
0
  2
SQUAREP
 70
64
 10
0.0000
 20
0.0000
 30
0.0000
  3
SQUAREP
  0
SOLID
  8
0
 10
-0.5000
 20
-0.5000
 30
0.0000
 11
0.5000
 21
-0.5000
 31
0.0000
 12
-0.5000
 22
0.5000
 32
0.0000
 13
0.5000
 23
0.5000
 33
0.0000
  0
ENDBLK
  8
0
  0
BLOCK
  8
0
  2
ROUNDP
 70
64
 10
0.0000
 20
0.0000
 30
0.0000
  3
ROUNDP
  0
POLYLINE
  8
0
 66
1
 10
0.0000
 20
0.0000
 30
0.0000
 40
0.5000
 41
0.5000
 70
0
  0
VERTEX
  8
0
 10
0.0000
 20
-0.2500
 30
0.0000
 42
1.0000
  0
VERTEX
  8
0
 10
0.0000
 20
0.2500
 30
0.0000
 42
1.0000
  0
VERTEX
  8
0
 10
0.0000
 20
-0.2500
 30
0.0000
  0
SEQEND
  8
0
  0
ENDBLK
  8
0
  0
BLOCK
  8
0
  2
ANNULUSP
 70
64
 10
0.0000
 20
0.0000
 30
0.0000
  3
ANNULUSP
  0
POLYLINE
  8
0
 66
1
 10
0.0000
 20
0.0000
 30
0.0000
 40
0.5000
 41
0.5000
 70
0
  0
VERTEX
  8
0
 10
0.0000
 20
-0.2500
 30
0.0000
 42
1.0000
  0
VERTEX
  8
0
 10
0.0000
 20
0.2500
 30
0.0000
 42
1.0000
  0
VERTEX
  8
0
 10
0.0000
 20
-0.2500
 30
0.0000
  0
SEQEND
  8
0
  0
ENDBLK
  8
0
  0
BLOCK
  8
0
  2
THERMALP
 70
64
 10
0.0000
 20
0.0000
 30
0.0000
  3
THERMALP
  0
POLYLINE
  8
0
 66
1
 10
0.0000
 20
0.0000
 30
0.0000
 40
0.1000
 41
0.1000
 70
0
  0
VERTEX
  8
0
 10
-0.2379
 20
0.4500
 30
0.0000
  0
VERTEX
  8
0
 10
0.2379
 20
0.4500
 30
0.0000
  0
SEQEND
  8
0
  0
POLYLINE
  8
0
 66
1
 10
0.0000
 20
0.0000
 30
0.0000
 40
0.0500
 41
0.0500
 70
0
  0
VERTEX
  8
0
 10
0.2379
 20
0.4250
 30
0.0000
 42
1.0000
  0
VERTEX
  8
0
 10
0.2379
 20
0.4750
 30
0.0000
  0
SEQEND
  8
0
  0
POLYLINE
  8
0
 66
1
 10
0.0000
 20
0.0000
 30
0.0000
 40
0.0500
 41
0.0500
 70
0
  0
VERTEX
  8
0
 10
-0.2379
 20
0.4750
 30
0.0000
 42
1.0000
  0
VERTEX
  8
0
 10
-0.2379
 20
0.4250
 30
0.0000
  0
SEQEND
  8
0
  0
POLYLINE
  8
0
 66
1
 10
0.0000
 20
0.0000
 30
0.0000
 40
0.1000
 41
0.1000
 70
0
  0
VERTEX
  8
0
 10
0.4500
 20
0.2379
 30
0.0000
  0
VERTEX
  8
0
 10
0.4500
 20
-0.2379
 30
0.0000
  0
SEQEND
  8
0
  0
POLYLINE
  8
0
 66
1
 10
0.0000
 20
0.0000
 30
0.0000
 40
0.0500
 41
0.0500
 70
0
  0
VERTEX
  8
0
 10
0.4250
 20
-0.2379
 30
0.0000
 42
1.0000
  0
VERTEX
  8
0
 10
0.4750
 20
-0.2379
 30
0.0000
  0
SEQEND
  8
0
  0
POLYLINE
  8
0
 66
1
 10
0.0000
 20
0.0000
 30
0.0000
 40
0.0500
 41
0.0500
 70
0
  0
VERTEX
  8
0
 10
0.4750
 20
0.2379
 30
0.0000
 42
1.0000
  0
VERTEX
  8
0
 10
0.4250
 20
0.2379
 30
0.0000
  0
SEQEND
  8
0
  0
POLYLINE
  8
0
 66
1
 10
0.0000
 20
0.0000
 30
0.0000
 40
0.1000
 41
0.1000
 70
0
  0
VERTEX
  8
0
 10
0.2379
 20
-0.4500
 30
0.0000
  0
VERTEX
  8
0
 10
-0.2379
 20
-0.4500
 30
0.0000
  0
SEQEND
  8
0
  0
POLYLINE
  8
0
 66
1
 10
0.0000
 20
0.0000
 30
0.0000
 40
0.0500
 41
0.0500
 70
0
  0
VERTEX
  8
0
 10
-0.2379
 20
-0.4250
 30
0.0000
 42
1.0000
  0
VERTEX
  8
0
 10
-0.2379
 20
-0.4750
 30
0.0000
  0
SEQEND
  8
0
  0
POLYLINE
  8
0
 66
1
 10
0.0000
 20
0.0000
 30
0.0000
 40
0.0500
 41
0.0500
 70
0
  0
VERTEX
  8
0
 10
0.2379
 20
-0.4750
 30
0.0000
 42
1.0000
  0
VERTEX
  8
0
 10
0.2379
 20
-0.4250
 30
0.0000
  0
SEQEND
  8
0
  0
POLYLINE
  8
0
 66
1
 10
0.0000
 20
0.0000
 30
0.0000
 40
0.1000
 41
0.1000
 70
0
  0
VERTEX
  8
0
 10
-0.4500
 20
-0.2379
 30
0.0000
  0
VERTEX
  8
0
 10
-0.4500
 20
0.2379
 30
0.0000
  0
SEQEND
  8
0
  0
POLYLINE
  8
0
 66
1
 10
0.0000
 20
0.0000
 30
0.0000
 40
0.0500
 41
0.0500
 70
0
  0
VERTEX
  8
0
 10
-0.4250
 20
0.2379
 30
0.0000
 42
1.0000
  0
VERTEX
  8
0
 10
-0.4750
 20
0.2379
 30
0.0000
  0
SEQEND
  8
0
  0
POLYLINE
  8
0
 66
1
 10
0.0000
 20
0.0000
 30
0.0000
 40
0.0500
 41
0.0500
 70
0
  0
VERTEX
  8
0
 10
-0.4750
 20
-0.2379
 30
0.0000
 42
1.0000
  0
VERTEX
  8
0
 10
-0.4250
 20
-0.2379
 30
0.0000
  0
SEQEND
  8
0
  0
ENDBLK
  8
0
  0
BLOCK
  8
0
  2
OCTAGONV
 70
64
 10
0.0000
 20
0.0000
 30
0.0000
  3
OCTAGONV
  0
POLYLINE
  8
0
 66
1
 10
0.0000
 20
0.0000
 30
0.0000
 40
0.5000
 41
0.5000
 70
0
  0
VERTEX
  8
0
 10
-0.2500
 20
-0.1036
 30
0.0000
  0
VERTEX
  8
0
 10
-0.2500
 20
0.1036
 30
0.0000
  0
VERTEX
  8
0
 10
-0.1036
 20
0.2500
 30
0.0000
  0
VERTEX
  8
0
 10
0.1036
 20
0.2500
 30
0.0000
  0
VERTEX
  8
0
 10
0.2500
 20
0.1036
 30
0.0000
  0
VERTEX
  8
0
 10
0.2500
 20
-0.1036
 30
0.0000
  0
VERTEX
  8
0
 10
0.1036
 20
-0.2500
 30
0.0000
  0
VERTEX
  8
0
 10
-0.1036
 20
-0.2500
 30
0.0000
  0
VERTEX
  8
0
 10
-0.2500
 20
-0.1036
 30
0.0000
  0
VERTEX
  8
0
 10
-0.2500
 20
0.1036
 30
0.0000
  0
SEQEND
  8
0
  0
ENDBLK
  8
0
  0
BLOCK
  8
0
  2
SQUAREV
 70
64
 10
0.0000
 20
0.0000
 30
0.0000
  3
SQUAREV
  0
SOLID
  8
0
 10
-0.5000
 20
-0.5000
 30
0.0000
 11
0.5000
 21
-0.5000
 31
0.0000
 12
-0.5000
 22
0.5000
 32
0.0000
 13
0.5000
 23
0.5000
 33
0.0000
  0
ENDBLK
  8
0
  0
BLOCK
  8
0
  2
ROUNDV
 70
64
 10
0.0000
 20
0.0000
 30
0.0000
  3
ROUNDV
  0
POLYLINE
  8
0
 66
1
 10
0.0000
 20
0.0000
 30
0.0000
 40
0.5000
 41
0.5000
 70
0
  0
VERTEX
  8
0
 10
0.0000
 20
-0.2500
 30
0.0000
 42
1.0000
  0
VERTEX
  8
0
 10
0.0000
 20
0.2500
 30
0.0000
 42
1.0000
  0
VERTEX
  8
0
 10
0.0000
 20
-0.2500
 30
0.0000
  0
SEQEND
  8
0
  0
ENDBLK
  8
0
  0
BLOCK
  8
0
  2
ANNULUSV
 70
64
 10
0.0000
 20
0.0000
 30
0.0000
  3
ANNULUSV
  0
POLYLINE
  8
0
 66
1
 10
0.0000
 20
0.0000
 30
0.0000
 40
0.5000
 41
0.5000
 70
0
  0
VERTEX
  8
0
 10
0.0000
 20
-0.2500
 30
0.0000
 42
1.0000
  0
VERTEX
  8
0
 10
0.0000
 20
0.2500
 30
0.0000
 42
1.0000
  0
VERTEX
  8
0
 10
0.0000
 20
-0.2500
 30
0.0000
  0
SEQEND
  8
0
  0
ENDBLK
  8
0
  0
BLOCK
  8
0
  2
THERMALV
 70
64
 10
0.0000
 20
0.0000
 30
0.0000
  3
THERMALV
  0
POLYLINE
  8
0
 66
1
 10
0.0000
 20
0.0000
 30
0.0000
 40
0.1000
 41
0.1000
 70
0
  0
VERTEX
  8
0
 10
-0.2379
 20
0.4500
 30
0.0000
  0
VERTEX
  8
0
 10
0.2379
 20
0.4500
 30
0.0000
  0
SEQEND
  8
0
  0
POLYLINE
  8
0
 66
1
 10
0.0000
 20
0.0000
 30
0.0000
 40
0.0500
 41
0.0500
 70
0
  0
VERTEX
  8
0
 10
0.2379
 20
0.4250
 30
0.0000
 42
1.0000
  0
VERTEX
  8
0
 10
0.2379
 20
0.4750
 30
0.0000
  0
SEQEND
  8
0
  0
POLYLINE
  8
0
 66
1
 10
0.0000
 20
0.0000
 30
0.0000
 40
0.0500
 41
0.0500
 70
0
  0
VERTEX
  8
0
 10
-0.2379
 20
0.4750
 30
0.0000
 42
1.0000
  0
VERTEX
  8
0
 10
-0.2379
 20
0.4250
 30
0.0000
  0
SEQEND
  8
0
  0
POLYLINE
  8
0
 66
1
 10
0.0000
 20
0.0000
 30
0.0000
 40
0.1000
 41
0.1000
 70
0
  0
VERTEX
  8
0
 10
0.4500
 20
0.2379
 30
0.0000
  0
VERTEX
  8
0
 10
0.4500
 20
-0.2379
 30
0.0000
  0
SEQEND
  8
0
  0
POLYLINE
  8
0
 66
1
 10
0.0000
 20
0.0000
 30
0.0000
 40
0.0500
 41
0.0500
 70
0
  0
VERTEX
  8
0
 10
0.4250
 20
-0.2379
 30
0.0000
 42
1.0000
  0
VERTEX
  8
0
 10
0.4750
 20
-0.2379
 30
0.0000
  0
SEQEND
  8
0
  0
POLYLINE
  8
0
 66
1
 10
0.0000
 20
0.0000
 30
0.0000
 40
0.0500
 41
0.0500
 70
0
  0
VERTEX
  8
0
 10
0.4750
 20
0.2379
 30
0.0000
 42
1.0000
  0
VERTEX
  8
0
 10
0.4250
 20
0.2379
 30
0.0000
  0
SEQEND
  8
0
  0
POLYLINE
  8
0
 66
1
 10
0.0000
 20
0.0000
 30
0.0000
 40
0.1000
 41
0.1000
 70
0
  0
VERTEX
  8
0
 10
0.2379
 20
-0.4500
 30
0.0000
  0
VERTEX
  8
0
 10
-0.2379
 20
-0.4500
 30
0.0000
  0
SEQEND
  8
0
  0
POLYLINE
  8
0
 66
1
 10
0.0000
 20
0.0000
 30
0.0000
 40
0.0500
 41
0.0500
 70
0
  0
VERTEX
  8
0
 10
-0.2379
 20
-0.4250
 30
0.0000
 42
1.0000
  0
VERTEX
  8
0
 10
-0.2379
 20
-0.4750
 30
0.0000
  0
SEQEND
  8
0
  0
POLYLINE
  8
0
 66
1
 10
0.0000
 20
0.0000
 30
0.0000
 40
0.0500
 41
0.0500
 70
0
  0
VERTEX
  8
0
 10
0.2379
 20
-0.4750
 30
0.0000
 42
1.0000
  0
VERTEX
  8
0
 10
0.2379
 20
-0.4250
 30
0.0000
  0
SEQEND
  8
0
  0
POLYLINE
  8
0
 66
1
 10
0.0000
 20
0.0000
 30
0.0000
 40
0.1000
 41
0.1000
 70
0
  0
VERTEX
  8
0
 10
-0.4500
 20
-0.2379
 30
0.0000
  0
VERTEX
  8
0
 10
-0.4500
 20
0.2379
 30
0.0000
  0
SEQEND
  8
0
  0
POLYLINE
  8
0
 66
1
 10
0.0000
 20
0.0000
 30
0.0000
 40
0.0500
 41
0.0500
 70
0
  0
VERTEX
  8
0
 10
-0.4250
 20
0.2379
 30
0.0000
 42
1.0000
  0
VERTEX
  8
0
 10
-0.4750
 20
0.2379
 30
0.0000
  0
SEQEND
  8
0
  0
POLYLINE
  8
0
 66
1
 10
0.0000
 20
0.0000
 30
0.0000
 40
0.0500
 41
0.0500
 70
0
  0
VERTEX
  8
0
 10
-0.4750
 20
-0.2379
 30
0.0000
 42
1.0000
  0
VERTEX
  8
0
 10
-0.4250
 20
-0.2379
 30
0.0000
  0
SEQEND
  8
0
  0
ENDBLK
  8
0
  0
BLOCK
  8
0
  2
LONGP100
 70
64
 10
0.0000
 20
0.0000
 30
0.0000
  3
LONGP100
  0
POLYLINE
  8
0
 66
1
 10
0.0000
 20
0.0000
 30
0.0000
 40
1.0000
 41
1.0000
 70
0
  0
VERTEX
  8
0
 10
-0.5000
 20
0.0000
 30
0.0000
  0
VERTEX
  8
0
 10
0.5000
 20
0.0000
 30
0.0000
  0
SEQEND
  8
0
  0
POLYLINE
  8
0
 66
1
 10
0.0000
 20
0.0000
 30
0.0000
 40
0.5000
 41
0.5000
 70
0
  0
VERTEX
  8
0
 10
0.5000
 20
-0.2500
 30
0.0000
 42
1.0000
  0
VERTEX
  8
0
 10
0.5000
 20
0.2500
 30
0.0000
  0
SEQEND
  8
0
  0
POLYLINE
  8
0
 66
1
 10
0.0000
 20
0.0000
 30
0.0000
 40
0.5000
 41
0.5000
 70
0
  0
VERTEX
  8
0
 10
-0.5000
 20
0.2500
 30
0.0000
 42
1.0000
  0
VERTEX
  8
0
 10
-0.5000
 20
-0.2500
 30
0.0000
  0
SEQEND
  8
0
  0
ENDBLK
  8
0
  0
ENDSEC
  0
SECTION
  2
ENTITIES
  0
POLYLINE
  8
20
 66
1
 10
0.0000
 20
0.0000
 30
0.0000
 40
0.3048
 41
0.3048
 70
0
  0
VERTEX
  8
20
 10
3.2000
 20
0.0000
 30
0.0000
  0
VERTEX
  8
20
 10
66.8000
 20
0.0000
 30
0.0000
  0
SEQEND
  8
0
  0
POLYLINE
  8
20
 66
1
 10
0.0000
 20
0.0000
 30
0.0000
 40
0.1524
 41
0.1524
 70
0
  0
VERTEX
  8
20
 10
66.8000
 20
-0.0762
 30
0.0000
 42
1.0000
  0
VERTEX
  8
20
 10
66.8000
 20
0.0762
 30
0.0000
  0
SEQEND
  8
0
  0
POLYLINE
  8
20
 66
1
 10
0.0000
 20
0.0000
 30
0.0000
 40
0.1524
 41
0.1524
 70
0
  0
VERTEX
  8
20
 10
3.2000
 20
0.0762
 30
0.0000
 42
1.0000
  0
VERTEX
  8
20
 10
3.2000
 20
-0.0762
 30
0.0000
  0
SEQEND
  8
0
  0
POLYLINE
  8
20
 66
1
 10
0.0000
 20
0.0000
 30
0.0000
 40
0.3048
 41
0.3048
 70
0
  0
VERTEX
  8
20
 10
45.4000
 20
40.0000
 30
0.0000
  0
VERTEX
  8
20
 10
10.0000
 20
40.0000
 30
0.0000
  0
SEQEND
  8
0
  0
POLYLINE
  8
20
 66
1
 10
0.0000
 20
0.0000
 30
0.0000
 40
0.1524
 41
0.1524
 70
0
  0
VERTEX
  8
20
 10
10.0000
 20
40.0762
 30
0.0000
 42
1.0000
  0
VERTEX
  8
20
 10
10.0000
 20
39.9238
 30
0.0000
  0
SEQEND
  8
0
  0
POLYLINE
  8
20
 66
1
 10
0.0000
 20
0.0000
 30
0.0000
 40
0.1524
 41
0.1524
 70
0
  0
VERTEX
  8
20
 10
45.4000
 20
39.9238
 30
0.0000
 42
1.0000
  0
VERTEX
  8
20
 10
45.4000
 20
40.0762
 30
0.0000
  0
SEQEND
  8
0
  0
POLYLINE
  8
20
 66
1
 10
0.0000
 20
0.0000
 30
0.0000
 40
0.3048
 41
0.3048
 70
0
  0
VERTEX
  8
20
 10
5.4000
 20
40.0000
 30
0.0000
  0
VERTEX
  8
20
 10
3.2000
 20
40.0000
 30
0.0000
  0
SEQEND
  8
0
  0
POLYLINE
  8
20
 66
1
 10
0.0000
 20
0.0000
 30
0.0000
 40
0.1524
 41
0.1524
 70
0
  0
VERTEX
  8
20
 10
3.2000
 20
40.0762
 30
0.0000
 42
1.0000
  0
VERTEX
  8
20
 10
3.2000
 20
39.9238
 30
0.0000
  0
SEQEND
  8
0
  0
POLYLINE
  8
20
 66
1
 10
0.0000
 20
0.0000
 30
0.0000
 40
0.1524
 41
0.1524
 70
0
  0
VERTEX
  8
20
 10
5.4000
 20
39.9238
 30
0.0000
 42
1.0000
  0
VERTEX
  8
20
 10
5.4000
 20
40.0762
 30
0.0000
  0
SEQEND
  8
0
  0
POLYLINE
  8
20
 66
1
 10
0.0000
 20
0.0000
 30
0.0000
 40
0.3048
 41
0.3048
 70
0
  0
VERTEX
  8
20
 10
0.0000
 20
36.8000
 30
0.0000
  0
VERTEX
  8
20
 10
0.0000
 20
3.2000
 30
0.0000
  0
SEQEND
  8
0
  0
POLYLINE
  8
20
 66
1
 10
0.0000
 20
0.0000
 30
0.0000
 40
0.1524
 41
0.1524
 70
0
  0
VERTEX
  8
20
 10
-0.0762
 20
3.2000
 30
0.0000
 42
1.0000
  0
VERTEX
  8
20
 10
0.0762
 20
3.2000
 30
0.0000
  0
SEQEND
  8
0
  0
POLYLINE
  8
20
 66
1
 10
0.0000
 20
0.0000
 30
0.0000
 40
0.1524
 41
0.1524
 70
0
  0
VERTEX
  8
20
 10
0.0762
 20
36.8000
 30
0.0000
 42
1.0000
  0
VERTEX
  8
20
 10
-0.0762
 20
36.8000
 30
0.0000
  0
SEQEND
  8
0
  0
POLYLINE
  8
20
 66
1
 10
0.0000
 20
0.0000
 30
0.0000
 40
0.3048
 41
0.3048
 70
0
  0
VERTEX
  8
20
 10
3.2000
 20
40.0000
 30
0.0000
 42
0.4142
  0
VERTEX
  8
20
 10
0.0000
 20
36.8000
 30
0.0000
  0
SEQEND
  8
0
  0
POLYLINE
  8
20
 66
1
 10
0.0000
 20
0.0000
 30
0.0000
 40
0.1524
 41
0.1524
 70
0
  0
VERTEX
  8
20
 10
3.2000
 20
39.9238
 30
0.0000
 42
1.0000
  0
VERTEX
  8
20
 10
3.2000
 20
40.0762
 30
0.0000
  0
SEQEND
  8
0
  0
POLYLINE
  8
20
 66
1
 10
0.0000
 20
0.0000
 30
0.0000
 40
0.1524
 41
0.1524
 70
0
  0
VERTEX
  8
20
 10
-0.0762
 20
36.8000
 30
0.0000
 42
1.0000
  0
VERTEX
  8
20
 10
0.0762
 20
36.8000
 30
0.0000
  0
SEQEND
  8
0
  0
POLYLINE
  8
20
 66
1
 10
0.0000
 20
0.0000
 30
0.0000
 40
0.3048
 41
0.3048
 70
0
  0
VERTEX
  8
20
 10
0.0000
 20
3.2000
 30
0.0000
 42
0.4142
  0
VERTEX
  8
20
 10
3.2000
 20
0.0000
 30
0.0000
  0
SEQEND
  8
0
  0
POLYLINE
  8
20
 66
1
 10
0.0000
 20
0.0000
 30
0.0000
 40
0.1524
 41
0.1524
 70
0
  0
VERTEX
  8
20
 10
0.0762
 20
3.2000
 30
0.0000
 42
1.0000
  0
VERTEX
  8
20
 10
-0.0762
 20
3.2000
 30
0.0000
  0
SEQEND
  8
0
  0
POLYLINE
  8
20
 66
1
 10
0.0000
 20
0.0000
 30
0.0000
 40
0.1524
 41
0.1524
 70
0
  0
VERTEX
  8
20
 10
3.2000
 20
-0.0762
 30
0.0000
 42
1.0000
  0
VERTEX
  8
20
 10
3.2000
 20
0.0762
 30
0.0000
  0
SEQEND
  8
0
  0
POLYLINE
  8
20
 66
1
 10
0.0000
 20
0.0000
 30
0.0000
 40
0.3048
 41
0.3048
 70
0
  0
VERTEX
  8
20
 10
66.8000
 20
0.0000
 30
0.0000
 42
0.4142
  0
VERTEX
  8
20
 10
70.0000
 20
3.2000
 30
0.0000
  0
SEQEND
  8
0
  0
POLYLINE
  8
20
 66
1
 10
0.0000
 20
0.0000
 30
0.0000
 40
0.1524
 41
0.1524
 70
0
  0
VERTEX
  8
20
 10
66.8000
 20
0.0762
 30
0.0000
 42
1.0000
  0
VERTEX
  8
20
 10
66.8000
 20
-0.0762
 30
0.0000
  0
SEQEND
  8
0
  0
POLYLINE
  8
20
 66
1
 10
0.0000
 20
0.0000
 30
0.0000
 40
0.1524
 41
0.1524
 70
0
  0
VERTEX
  8
20
 10
70.0762
 20
3.2000
 30
0.0000
 42
1.0000
  0
VERTEX
  8
20
 10
69.9238
 20
3.2000
 30
0.0000
  0
SEQEND
  8
0
  0
POLYLINE
  8
20
 66
1
 10
0.0000
 20
0.0000
 30
0.0000
 40
0.3048
 41
0.3048
 70
0
  0
VERTEX
  8
20
 10
70.0000
 20
36.8000
 30
0.0000
 42
0.4142
  0
VERTEX
  8
20
 10
66.8000
 20
40.0000
 30
0.0000
  0
SEQEND
  8
0
  0
POLYLINE
  8
20
 66
1
 10
0.0000
 20
0.0000
 30
0.0000
 40
0.1524
 41
0.1524
 70
0
  0
VERTEX
  8
20
 10
69.9238
 20
36.8000
 30
0.0000
 42
1.0000
  0
VERTEX
  8
20
 10
70.0762
 20
36.8000
 30
0.0000
  0
SEQEND
  8
0
  0
POLYLINE
  8
20
 66
1
 10
0.0000
 20
0.0000
 30
0.0000
 40
0.1524
 41
0.1524
 70
0
  0
VERTEX
  8
20
 10
66.8000
 20
40.0762
 30
0.0000
 42
1.0000
  0
VERTEX
  8
20
 10
66.8000
 20
39.9238
 30
0.0000
  0
SEQEND
  8
0
  0
POLYLINE
  8
20
 66
1
 10
0.0000
 20
0.0000
 30
0.0000
 40
0.3048
 41
0.3048
 70
0
  0
VERTEX
  8
20
 10
80.6000
 20
0.0000
 30
0.0000
  0
VERTEX
  8
20
 10
99.4000
 20
0.0000
 30
0.0000
  0
SEQEND
  8
0
  0
POLYLINE
  8
20
 66
1
 10
0.0000
 20
0.0000
 30
0.0000
 40
0.1524
 41
0.1524
 70
0
  0
VERTEX
  8
20
 10
99.4000
 20
-0.0762
 30
0.0000
 42
1.0000
  0
VERTEX
  8
20
 10
99.4000
 20
0.0762
 30
0.0000
  0
SEQEND
  8
0
  0
POLYLINE
  8
20
 66
1
 10
0.0000
 20
0.0000
 30
0.0000
 40
0.1524
 41
0.1524
 70
0
  0
VERTEX
  8
20
 10
80.6000
 20
0.0762
 30
0.0000
 42
1.0000
  0
VERTEX
  8
20
 10
80.6000
 20
-0.0762
 30
0.0000
  0
SEQEND
  8
0
  0
POLYLINE
  8
20
 66
1
 10
0.0000
 20
0.0000
 30
0.0000
 40
0.3048
 41
0.3048
 70
0
  0
VERTEX
  8
20
 10
102.6000
 20
3.2000
 30
0.0000
  0
VERTEX
  8
20
 10
102.6000
 20
14.4000
 30
0.0000
  0
SEQEND
  8
0
  0
POLYLINE
  8
20
 66
1
 10
0.0000
 20
0.0000
 30
0.0000
 40
0.1524
 41
0.1524
 70
0
  0
VERTEX
  8
20
 10
102.6762
 20
14.4000
 30
0.0000
 42
1.0000
  0
VERTEX
  8
20
 10
102.5238
 20
14.4000
 30
0.0000
  0
SEQEND
  8
0
  0
POLYLINE
  8
20
 66
1
 10
0.0000
 20
0.0000
 30
0.0000
 40
0.1524
 41
0.1524
 70
0
  0
VERTEX
  8
20
 10
102.5238
 20
3.2000
 30
0.0000
 42
1.0000
  0
VERTEX
  8
20
 10
102.6762
 20
3.2000
 30
0.0000
  0
SEQEND
  8
0
  0
POLYLINE
  8
20
 66
1
 10
0.0000
 20
0.0000
 30
0.0000
 40
0.3048
 41
0.3048
 70
0
  0
VERTEX
  8
20
 10
102.6000
 20
25.6000
 30
0.0000
  0
VERTEX
  8
20
 10
102.6000
 20
36.8000
 30
0.0000
  0
SEQEND
  8
0
  0
POLYLINE
  8
20
 66
1
 10
0.0000
 20
0.0000
 30
0.0000
 40
0.1524
 41
0.1524
 70
0
  0
VERTEX
  8
20
 10
102.6762
 20
36.8000
 30
0.0000
 42
1.0000
  0
VERTEX
  8
20
 10
102.5238
 20
36.8000
 30
0.0000
  0
SEQEND
  8
0
  0
POLYLINE
  8
20
 66
1
 10
0.0000
 20
0.0000
 30
0.0000
 40
0.1524
 41
0.1524
 70
0
  0
VERTEX
  8
20
 10
102.5238
 20
25.6000
 30
0.0000
 42
1.0000
  0
VERTEX
  8
20
 10
102.6762
 20
25.6000
 30
0.0000
  0
SEQEND
  8
0
  0
POLYLINE
  8
20
 66
1
 10
0.0000
 20
0.0000
 30
0.0000
 40
0.3048
 41
0.3048
 70
0
  0
VERTEX
  8
20
 10
99.4000
 20
40.0000
 30
0.0000
  0
VERTEX
  8
20
 10
76.2000
 20
40.0000
 30
0.0000
  0
SEQEND
  8
0
  0
POLYLINE
  8
20
 66
1
 10
0.0000
 20
0.0000
 30
0.0000
 40
0.1524
 41
0.1524
 70
0
  0
VERTEX
  8
20
 10
76.2000
 20
40.0762
 30
0.0000
 42
1.0000
  0
VERTEX
  8
20
 10
76.2000
 20
39.9238
 30
0.0000
  0
SEQEND
  8
0
  0
POLYLINE
  8
20
 66
1
 10
0.0000
 20
0.0000
 30
0.0000
 40
0.1524
 41
0.1524
 70
0
  0
VERTEX
  8
20
 10
99.4000
 20
39.9238
 30
0.0000
 42
1.0000
  0
VERTEX
  8
20
 10
99.4000
 20
40.0762
 30
0.0000
  0
SEQEND
  8
0
  0
POLYLINE
  8
20
 66
1
 10
0.0000
 20
0.0000
 30
0.0000
 40
0.3048
 41
0.3048
 70
0
  0
VERTEX
  8
20
 10
99.4000
 20
0.0000
 30
0.0000
 42
0.4142
  0
VERTEX
  8
20
 10
102.6000
 20
3.2000
 30
0.0000
  0
SEQEND
  8
0
  0
POLYLINE
  8
20
 66
1
 10
0.0000
 20
0.0000
 30
0.0000
 40
0.1524
 41
0.1524
 70
0
  0
VERTEX
  8
20
 10
99.4000
 20
0.0762
 30
0.0000
 42
1.0000
  0
VERTEX
  8
20
 10
99.4000
 20
-0.0762
 30
0.0000
  0
SEQEND
  8
0
  0
POLYLINE
  8
20
 66
1
 10
0.0000
 20
0.0000
 30
0.0000
 40
0.1524
 41
0.1524
 70
0
  0
VERTEX
  8
20
 10
102.6762
 20
3.2000
 30
0.0000
 42
1.0000
  0
VERTEX
  8
20
 10
102.5238
 20
3.2000
 30
0.0000
  0
SEQEND
  8
0
  0
POLYLINE
  8
20
 66
1
 10
0.0000
 20
0.0000
 30
0.0000
 40
0.3048
 41
0.3048
 70
0
  0
VERTEX
  8
20
 10
102.6000
 20
36.8000
 30
0.0000
 42
0.4142
  0
VERTEX
  8
20
 10
99.4000
 20
40.0000
 30
0.0000
  0
SEQEND
  8
0
  0
POLYLINE
  8
20
 66
1
 10
0.0000
 20
0.0000
 30
0.0000
 40
0.1524
 41
0.1524
 70
0
  0
VERTEX
  8
20
 10
102.5238
 20
36.8000
 30
0.0000
 42
1.0000
  0
VERTEX
  8
20
 10
102.6762
 20
36.8000
 30
0.0000
  0
SEQEND
  8
0
  0
POLYLINE
  8
20
 66
1
 10
0.0000
 20
0.0000
 30
0.0000
 40
0.1524
 41
0.1524
 70
0
  0
VERTEX
  8
20
 10
99.4000
 20
40.0762
 30
0.0000
 42
1.0000
  0
VERTEX
  8
20
 10
99.4000
 20
39.9238
 30
0.0000
  0
SEQEND
  8
0
  0
POLYLINE
  8
20
 66
1
 10
0.0000
 20
0.0000
 30
0.0000
 40
0.3048
 41
0.3048
 70
0
  0
VERTEX
  8
20
 10
80.6000
 20
0.0000
 30
0.0000
  0
VERTEX
  8
20
 10
80.6000
 20
5.6000
 30
0.0000
  0
SEQEND
  8
0
  0
POLYLINE
  8
20
 66
1
 10
0.0000
 20
0.0000
 30
0.0000
 40
0.1524
 41
0.1524
 70
0
  0
VERTEX
  8
20
 10
80.6762
 20
5.6000
 30
0.0000
 42
1.0000
  0
VERTEX
  8
20
 10
80.5238
 20
5.6000
 30
0.0000
  0
SEQEND
  8
0
  0
POLYLINE
  8
20
 66
1
 10
0.0000
 20
0.0000
 30
0.0000
 40
0.1524
 41
0.1524
 70
0
  0
VERTEX
  8
20
 10
80.5238
 20
0.0000
 30
0.0000
 42
1.0000
  0
VERTEX
  8
20
 10
80.6762
 20
0.0000
 30
0.0000
  0
SEQEND
  8
0
  0
POLYLINE
  8
20
 66
1
 10
0.0000
 20
0.0000
 30
0.0000
 40
0.3048
 41
0.3048
 70
0
  0
VERTEX
  8
20
 10
102.6000
 20
14.4000
 30
0.0000
  0
VERTEX
  8
20
 10
94.4000
 20
14.4000
 30
0.0000
  0
SEQEND
  8
0
  0
POLYLINE
  8
20
 66
1
 10
0.0000
 20
0.0000
 30
0.0000
 40
0.1524
 41
0.1524
 70
0
  0
VERTEX
  8
20
 10
94.4000
 20
14.4762
 30
0.0000
 42
1.0000
  0
VERTEX
  8
20
 10
94.4000
 20
14.3238
 30
0.0000
  0
SEQEND
  8
0
  0
POLYLINE
  8
20
 66
1
 10
0.0000
 20
0.0000
 30
0.0000
 40
0.1524
 41
0.1524
 70
0
  0
VERTEX
  8
20
 10
102.6000
 20
14.3238
 30
0.0000
 42
1.0000
  0
VERTEX
  8
20
 10
102.6000
 20
14.4762
 30
0.0000
  0
SEQEND
  8
0
  0
POLYLINE
  8
20
 66
1
 10
0.0000
 20
0.0000
 30
0.0000
 40
0.3048
 41
0.3048
 70
0
  0
VERTEX
  8
20
 10
94.4000
 20
14.4000
 30
0.0000
  0
VERTEX
  8
20
 10
94.4000
 20
25.6000
 30
0.0000
  0
SEQEND
  8
0
  0
POLYLINE
  8
20
 66
1
 10
0.0000
 20
0.0000
 30
0.0000
 40
0.1524
 41
0.1524
 70
0
  0
VERTEX
  8
20
 10
94.4762
 20
25.6000
 30
0.0000
 42
1.0000
  0
VERTEX
  8
20
 10
94.3238
 20
25.6000
 30
0.0000
  0
SEQEND
  8
0
  0
POLYLINE
  8
20
 66
1
 10
0.0000
 20
0.0000
 30
0.0000
 40
0.1524
 41
0.1524
 70
0
  0
VERTEX
  8
20
 10
94.3238
 20
14.4000
 30
0.0000
 42
1.0000
  0
VERTEX
  8
20
 10
94.4762
 20
14.4000
 30
0.0000
  0
SEQEND
  8
0
  0
POLYLINE
  8
20
 66
1
 10
0.0000
 20
0.0000
 30
0.0000
 40
0.3048
 41
0.3048
 70
0
  0
VERTEX
  8
20
 10
94.4000
 20
25.6000
 30
0.0000
  0
VERTEX
  8
20
 10
102.6000
 20
25.6000
 30
0.0000
  0
SEQEND
  8
0
  0
POLYLINE
  8
20
 66
1
 10
0.0000
 20
0.0000
 30
0.0000
 40
0.1524
 41
0.1524
 70
0
  0
VERTEX
  8
20
 10
102.6000
 20
25.5238
 30
0.0000
 42
1.0000
  0
VERTEX
  8
20
 10
102.6000
 20
25.6762
 30
0.0000
  0
SEQEND
  8
0
  0
POLYLINE
  8
20
 66
1
 10
0.0000
 20
0.0000
 30
0.0000
 40
0.1524
 41
0.1524
 70
0
  0
VERTEX
  8
20
 10
94.4000
 20
25.6762
 30
0.0000
 42
1.0000
  0
VERTEX
  8
20
 10
94.4000
 20
25.5238
 30
0.0000
  0
SEQEND
  8
0
  0
POLYLINE
  8
20
 66
1
 10
0.0000
 20
0.0000
 30
0.0000
 40
0.3048
 41
0.3048
 70
0
  0
VERTEX
  8
20
 10
80.6000
 20
5.6000
 30
0.0000
  0
VERTEX
  8
20
 10
76.2000
 20
5.6000
 30
0.0000
  0
SEQEND
  8
0
  0
POLYLINE
  8
20
 66
1
 10
0.0000
 20
0.0000
 30
0.0000
 40
0.1524
 41
0.1524
 70
0
  0
VERTEX
  8
20
 10
76.2000
 20
5.6762
 30
0.0000
 42
1.0000
  0
VERTEX
  8
20
 10
76.2000
 20
5.5238
 30
0.0000
  0
SEQEND
  8
0
  0
POLYLINE
  8
20
 66
1
 10
0.0000
 20
0.0000
 30
0.0000
 40
0.1524
 41
0.1524
 70
0
  0
VERTEX
  8
20
 10
80.6000
 20
5.5238
 30
0.0000
 42
1.0000
  0
VERTEX
  8
20
 10
80.6000
 20
5.6762
 30
0.0000
  0
SEQEND
  8
0
  0
POLYLINE
  8
20
 66
1
 10
0.0000
 20
0.0000
 30
0.0000
 40
0.3048
 41
0.3048
 70
0
  0
VERTEX
  8
20
 10
73.0000
 20
17.8000
 30
0.0000
 42
0.8755
  0
VERTEX
  8
20
 10
70.0000
 20
17.8000
 30
0.0000
  0
SEQEND
  8
0
  0
POLYLINE
  8
20
 66
1
 10
0.0000
 20
0.0000
 30
0.0000
 40
0.1524
 41
0.1524
 70
0
  0
VERTEX
  8
20
 10
72.9245
 20
17.7899
 30
0.0000
 42
1.0000
  0
VERTEX
  8
20
 10
73.0755
 20
17.8101
 30
0.0000
  0
SEQEND
  8
0
  0
POLYLINE
  8
20
 66
1
 10
0.0000
 20
0.0000
 30
0.0000
 40
0.1524
 41
0.1524
 70
0
  0
VERTEX
  8
20
 10
69.9245
 20
17.8101
 30
0.0000
 42
1.0000
  0
VERTEX
  8
20
 10
70.0755
 20
17.7899
 30
0.0000
  0
SEQEND
  8
0
  0
POLYLINE
  8
20
 66
1
 10
0.0000
 20
0.0000
 30
0.0000
 40
0.3048
 41
0.3048
 70
0
  0
VERTEX
  8
20
 10
70.0000
 20
22.4000
 30
0.0000
 42
0.8755
  0
VERTEX
  8
20
 10
73.0000
 20
22.4000
 30
0.0000
  0
SEQEND
  8
0
  0
POLYLINE
  8
20
 66
1
 10
0.0000
 20
0.0000
 30
0.0000
 40
0.1524
 41
0.1524
 70
0
  0
VERTEX
  8
20
 10
70.0755
 20
22.4101
 30
0.0000
 42
1.0000
  0
VERTEX
  8
20
 10
69.9245
 20
22.3899
 30
0.0000
  0
SEQEND
  8
0
  0
POLYLINE
  8
20
 66
1
 10
0.0000
 20
0.0000
 30
0.0000
 40
0.1524
 41
0.1524
 70
0
  0
VERTEX
  8
20
 10
73.0755
 20
22.3899
 30
0.0000
 42
1.0000
  0
VERTEX
  8
20
 10
72.9245
 20
22.4101
 30
0.0000
  0
SEQEND
  8
0
  0
POLYLINE
  8
20
 66
1
 10
0.0000
 20
0.0000
 30
0.0000
 40
0.3048
 41
0.3048
 70
0
  0
VERTEX
  8
20
 10
73.0000
 20
32.2000
 30
0.0000
 42
0.8755
  0
VERTEX
  8
20
 10
70.0000
 20
32.2000
 30
0.0000
  0
SEQEND
  8
0
  0
POLYLINE
  8
20
 66
1
 10
0.0000
 20
0.0000
 30
0.0000
 40
0.1524
 41
0.1524
 70
0
  0
VERTEX
  8
20
 10
72.9245
 20
32.1899
 30
0.0000
 42
1.0000
  0
VERTEX
  8
20
 10
73.0755
 20
32.2101
 30
0.0000
  0
SEQEND
  8
0
  0
POLYLINE
  8
20
 66
1
 10
0.0000
 20
0.0000
 30
0.0000
 40
0.1524
 41
0.1524
 70
0
  0
VERTEX
  8
20
 10
69.9245
 20
32.2101
 30
0.0000
 42
1.0000
  0
VERTEX
  8
20
 10
70.0755
 20
32.1899
 30
0.0000
  0
SEQEND
  8
0
  0
POLYLINE
  8
20
 66
1
 10
0.0000
 20
0.0000
 30
0.0000
 40
0.3048
 41
0.3048
 70
0
  0
VERTEX
  8
20
 10
70.0000
 20
36.8000
 30
0.0000
 42
0.8755
  0
VERTEX
  8
20
 10
73.0000
 20
36.8000
 30
0.0000
  0
SEQEND
  8
0
  0
POLYLINE
  8
20
 66
1
 10
0.0000
 20
0.0000
 30
0.0000
 40
0.1524
 41
0.1524
 70
0
  0
VERTEX
  8
20
 10
70.0755
 20
36.8101
 30
0.0000
 42
1.0000
  0
VERTEX
  8
20
 10
69.9245
 20
36.7899
 30
0.0000
  0
SEQEND
  8
0
  0
POLYLINE
  8
20
 66
1
 10
0.0000
 20
0.0000
 30
0.0000
 40
0.1524
 41
0.1524
 70
0
  0
VERTEX
  8
20
 10
73.0755
 20
36.7899
 30
0.0000
 42
1.0000
  0
VERTEX
  8
20
 10
72.9245
 20
36.8101
 30
0.0000
  0
SEQEND
  8
0
  0
POLYLINE
  8
20
 66
1
 10
0.0000
 20
0.0000
 30
0.0000
 40
0.3048
 41
0.3048
 70
0
  0
VERTEX
  8
20
 10
73.0000
 20
17.8000
 30
0.0000
  0
VERTEX
  8
20
 10
73.0000
 20
13.4000
 30
0.0000
  0
SEQEND
  8
0
  0
POLYLINE
  8
20
 66
1
 10
0.0000
 20
0.0000
 30
0.0000
 40
0.1524
 41
0.1524
 70
0
  0
VERTEX
  8
20
 10
72.9238
 20
13.4000
 30
0.0000
 42
1.0000
  0
VERTEX
  8
20
 10
73.0762
 20
13.4000
 30
0.0000
  0
SEQEND
  8
0
  0
POLYLINE
  8
20
 66
1
 10
0.0000
 20
0.0000
 30
0.0000
 40
0.1524
 41
0.1524
 70
0
  0
VERTEX
  8
20
 10
73.0762
 20
17.8000
 30
0.0000
 42
1.0000
  0
VERTEX
  8
20
 10
72.9238
 20
17.8000
 30
0.0000
  0
SEQEND
  8
0
  0
POLYLINE
  8
20
 66
1
 10
0.0000
 20
0.0000
 30
0.0000
 40
0.3048
 41
0.3048
 70
0
  0
VERTEX
  8
20
 10
70.0000
 20
17.8000
 30
0.0000
  0
VERTEX
  8
20
 10
70.0000
 20
13.4000
 30
0.0000
  0
SEQEND
  8
0
  0
POLYLINE
  8
20
 66
1
 10
0.0000
 20
0.0000
 30
0.0000
 40
0.1524
 41
0.1524
 70
0
  0
VERTEX
  8
20
 10
69.9238
 20
13.4000
 30
0.0000
 42
1.0000
  0
VERTEX
  8
20
 10
70.0762
 20
13.4000
 30
0.0000
  0
SEQEND
  8
0
  0
POLYLINE
  8
20
 66
1
 10
0.0000
 20
0.0000
 30
0.0000
 40
0.1524
 41
0.1524
 70
0
  0
VERTEX
  8
20
 10
70.0762
 20
17.8000
 30
0.0000
 42
1.0000
  0
VERTEX
  8
20
 10
69.9238
 20
17.8000
 30
0.0000
  0
SEQEND
  8
0
  0
POLYLINE
  8
20
 66
1
 10
0.0000
 20
0.0000
 30
0.0000
 40
0.3048
 41
0.3048
 70
0
  0
VERTEX
  8
20
 10
73.0000
 20
22.4000
 30
0.0000
  0
VERTEX
  8
20
 10
73.0000
 20
32.2000
 30
0.0000
  0
SEQEND
  8
0
  0
POLYLINE
  8
20
 66
1
 10
0.0000
 20
0.0000
 30
0.0000
 40
0.1524
 41
0.1524
 70
0
  0
VERTEX
  8
20
 10
73.0762
 20
32.2000
 30
0.0000
 42
1.0000
  0
VERTEX
  8
20
 10
72.9238
 20
32.2000
 30
0.0000
  0
SEQEND
  8
0
  0
POLYLINE
  8
20
 66
1
 10
0.0000
 20
0.0000
 30
0.0000
 40
0.1524
 41
0.1524
 70
0
  0
VERTEX
  8
20
 10
72.9238
 20
22.4000
 30
0.0000
 42
1.0000
  0
VERTEX
  8
20
 10
73.0762
 20
22.4000
 30
0.0000
  0
SEQEND
  8
0
  0
POLYLINE
  8
20
 66
1
 10
0.0000
 20
0.0000
 30
0.0000
 40
0.3048
 41
0.3048
 70
0
  0
VERTEX
  8
20
 10
70.0000
 20
32.2000
 30
0.0000
  0
VERTEX
  8
20
 10
70.0000
 20
22.4000
 30
0.0000
  0
SEQEND
  8
0
  0
POLYLINE
  8
20
 66
1
 10
0.0000
 20
0.0000
 30
0.0000
 40
0.1524
 41
0.1524
 70
0
  0
VERTEX
  8
20
 10
69.9238
 20
22.4000
 30
0.0000
 42
1.0000
  0
VERTEX
  8
20
 10
70.0762
 20
22.4000
 30
0.0000
  0
SEQEND
  8
0
  0
POLYLINE
  8
20
 66
1
 10
0.0000
 20
0.0000
 30
0.0000
 40
0.1524
 41
0.1524
 70
0
  0
VERTEX
  8
20
 10
70.0762
 20
32.2000
 30
0.0000
 42
1.0000
  0
VERTEX
  8
20
 10
69.9238
 20
32.2000
 30
0.0000
  0
SEQEND
  8
0
  0
POLYLINE
  8
20
 66
1
 10
0.0000
 20
0.0000
 30
0.0000
 40
0.3048
 41
0.3048
 70
0
  0
VERTEX
  8
20
 10
76.2000
 20
40.0000
 30
0.0000
 42
0.4142
  0
VERTEX
  8
20
 10
73.0000
 20
36.8000
 30
0.0000
  0
SEQEND
  8
0
  0
POLYLINE
  8
20
 66
1
 10
0.0000
 20
0.0000
 30
0.0000
 40
0.1524
 41
0.1524
 70
0
  0
VERTEX
  8
20
 10
76.2000
 20
39.9238
 30
0.0000
 42
1.0000
  0
VERTEX
  8
20
 10
76.2000
 20
40.0762
 30
0.0000
  0
SEQEND
  8
0
  0
POLYLINE
  8
20
 66
1
 10
0.0000
 20
0.0000
 30
0.0000
 40
0.1524
 41
0.1524
 70
0
  0
VERTEX
  8
20
 10
72.9238
 20
36.8000
 30
0.0000
 42
1.0000
  0
VERTEX
  8
20
 10
73.0762
 20
36.8000
 30
0.0000
  0
SEQEND
  8
0
  0
POLYLINE
  8
20
 66
1
 10
0.0000
 20
0.0000
 30
0.0000
 40
0.3048
 41
0.3048
 70
0
  0
VERTEX
  8
20
 10
73.0000
 20
8.8000
 30
0.0000
 42
0.4142
  0
VERTEX
  8
20
 10
76.2000
 20
5.6000
 30
0.0000
  0
SEQEND
  8
0
  0
POLYLINE
  8
20
 66
1
 10
0.0000
 20
0.0000
 30
0.0000
 40
0.1524
 41
0.1524
 70
0
  0
VERTEX
  8
20
 10
73.0762
 20
8.8000
 30
0.0000
 42
1.0000
  0
VERTEX
  8
20
 10
72.9238
 20
8.8000
 30
0.0000
  0
SEQEND
  8
0
  0
POLYLINE
  8
20
 66
1
 10
0.0000
 20
0.0000
 30
0.0000
 40
0.1524
 41
0.1524
 70
0
  0
VERTEX
  8
20
 10
76.2000
 20
5.5238
 30
0.0000
 42
1.0000
  0
VERTEX
  8
20
 10
76.2000
 20
5.6762
 30
0.0000
  0
SEQEND
  8
0
  0
POLYLINE
  8
20
 66
1
 10
0.0000
 20
0.0000
 30
0.0000
 40
0.3048
 41
0.3048
 70
0
  0
VERTEX
  8
20
 10
73.0000
 20
8.8000
 30
0.0000
 42
0.8755
  0
VERTEX
  8
20
 10
70.0000
 20
8.8000
 30
0.0000
  0
SEQEND
  8
0
  0
POLYLINE
  8
20
 66
1
 10
0.0000
 20
0.0000
 30
0.0000
 40
0.1524
 41
0.1524
 70
0
  0
VERTEX
  8
20
 10
72.9245
 20
8.7899
 30
0.0000
 42
1.0000
  0
VERTEX
  8
20
 10
73.0755
 20
8.8101
 30
0.0000
  0
SEQEND
  8
0
  0
POLYLINE
  8
20
 66
1
 10
0.0000
 20
0.0000
 30
0.0000
 40
0.1524
 41
0.1524
 70
0
  0
VERTEX
  8
20
 10
69.9245
 20
8.8101
 30
0.0000
 42
1.0000
  0
VERTEX
  8
20
 10
70.0755
 20
8.7899
 30
0.0000
  0
SEQEND
  8
0
  0
POLYLINE
  8
20
 66
1
 10
0.0000
 20
0.0000
 30
0.0000
 40
0.3048
 41
0.3048
 70
0
  0
VERTEX
  8
20
 10
70.0000
 20
13.4000
 30
0.0000
 42
0.8755
  0
VERTEX
  8
20
 10
73.0000
 20
13.4000
 30
0.0000
  0
SEQEND
  8
0
  0
POLYLINE
  8
20
 66
1
 10
0.0000
 20
0.0000
 30
0.0000
 40
0.1524
 41
0.1524
 70
0
  0
VERTEX
  8
20
 10
70.0755
 20
13.4101
 30
0.0000
 42
1.0000
  0
VERTEX
  8
20
 10
69.9245
 20
13.3899
 30
0.0000
  0
SEQEND
  8
0
  0
POLYLINE
  8
20
 66
1
 10
0.0000
 20
0.0000
 30
0.0000
 40
0.1524
 41
0.1524
 70
0
  0
VERTEX
  8
20
 10
73.0755
 20
13.3899
 30
0.0000
 42
1.0000
  0
VERTEX
  8
20
 10
72.9245
 20
13.4101
 30
0.0000
  0
SEQEND
  8
0
  0
POLYLINE
  8
20
 66
1
 10
0.0000
 20
0.0000
 30
0.0000
 40
0.3048
 41
0.3048
 70
0
  0
VERTEX
  8
20
 10
70.0000
 20
8.8000
 30
0.0000
  0
VERTEX
  8
20
 10
70.0000
 20
3.2000
 30
0.0000
  0
SEQEND
  8
0
  0
POLYLINE
  8
20
 66
1
 10
0.0000
 20
0.0000
 30
0.0000
 40
0.1524
 41
0.1524
 70
0
  0
VERTEX
  8
20
 10
69.9238
 20
3.2000
 30
0.0000
 42
1.0000
  0
VERTEX
  8
20
 10
70.0762
 20
3.2000
 30
0.0000
  0
SEQEND
  8
0
  0
POLYLINE
  8
20
 66
1
 10
0.0000
 20
0.0000
 30
0.0000
 40
0.1524
 41
0.1524
 70
0
  0
VERTEX
  8
20
 10
70.0762
 20
8.8000
 30
0.0000
 42
1.0000
  0
VERTEX
  8
20
 10
69.9238
 20
8.8000
 30
0.0000
  0
SEQEND
  8
0
  0
POLYLINE
  8
20
 66
1
 10
0.0000
 20
0.0000
 30
0.0000
 40
0.3048
 41
0.3048
 70
0
  0
VERTEX
  8
20
 10
0.0000
 20
43.0000
 30
0.0000
  0
VERTEX
  8
20
 10
0.0000
 20
83.0000
 30
0.0000
  0
SEQEND
  8
0
  0
POLYLINE
  8
20
 66
1
 10
0.0000
 20
0.0000
 30
0.0000
 40
0.1524
 41
0.1524
 70
0
  0
VERTEX
  8
20
 10
0.0762
 20
83.0000
 30
0.0000
 42
1.0000
  0
VERTEX
  8
20
 10
-0.0762
 20
83.0000
 30
0.0000
  0
SEQEND
  8
0
  0
POLYLINE
  8
20
 66
1
 10
0.0000
 20
0.0000
 30
0.0000
 40
0.1524
 41
0.1524
 70
0
  0
VERTEX
  8
20
 10
-0.0762
 20
43.0000
 30
0.0000
 42
1.0000
  0
VERTEX
  8
20
 10
0.0762
 20
43.0000
 30
0.0000
  0
SEQEND
  8
0
  0
POLYLINE
  8
20
 66
1
 10
0.0000
 20
0.0000
 30
0.0000
 40
0.3048
 41
0.3048
 70
0
  0
VERTEX
  8
20
 10
0.0000
 20
83.0000
 30
0.0000
  0
VERTEX
  8
20
 10
50.0000
 20
83.0000
 30
0.0000
  0
SEQEND
  8
0
  0
POLYLINE
  8
20
 66
1
 10
0.0000
 20
0.0000
 30
0.0000
 40
0.1524
 41
0.1524
 70
0
  0
VERTEX
  8
20
 10
50.0000
 20
82.9238
 30
0.0000
 42
1.0000
  0
VERTEX
  8
20
 10
50.0000
 20
83.0762
 30
0.0000
  0
SEQEND
  8
0
  0
POLYLINE
  8
20
 66
1
 10
0.0000
 20
0.0000
 30
0.0000
 40
0.1524
 41
0.1524
 70
0
  0
VERTEX
  8
20
 10
0.0000
 20
83.0762
 30
0.0000
 42
1.0000
  0
VERTEX
  8
20
 10
0.0000
 20
82.9238
 30
0.0000
  0
SEQEND
  8
0
  0
POLYLINE
  8
20
 66
1
 10
0.0000
 20
0.0000
 30
0.0000
 40
0.3048
 41
0.3048
 70
0
  0
VERTEX
  8
20
 10
45.4000
 20
43.0000
 30
0.0000
  0
VERTEX
  8
20
 10
10.0000
 20
43.0000
 30
0.0000
  0
SEQEND
  8
0
  0
POLYLINE
  8
20
 66
1
 10
0.0000
 20
0.0000
 30
0.0000
 40
0.1524
 41
0.1524
 70
0
  0
VERTEX
  8
20
 10
10.0000
 20
43.0762
 30
0.0000
 42
1.0000
  0
VERTEX
  8
20
 10
10.0000
 20
42.9238
 30
0.0000
  0
SEQEND
  8
0
  0
POLYLINE
  8
20
 66
1
 10
0.0000
 20
0.0000
 30
0.0000
 40
0.1524
 41
0.1524
 70
0
  0
VERTEX
  8
20
 10
45.4000
 20
42.9238
 30
0.0000
 42
1.0000
  0
VERTEX
  8
20
 10
45.4000
 20
43.0762
 30
0.0000
  0
SEQEND
  8
0
  0
POLYLINE
  8
20
 66
1
 10
0.0000
 20
0.0000
 30
0.0000
 40
0.3048
 41
0.3048
 70
0
  0
VERTEX
  8
20
 10
5.4000
 20
43.0000
 30
0.0000
  0
VERTEX
  8
20
 10
0.0000
 20
43.0000
 30
0.0000
  0
SEQEND
  8
0
  0
POLYLINE
  8
20
 66
1
 10
0.0000
 20
0.0000
 30
0.0000
 40
0.1524
 41
0.1524
 70
0
  0
VERTEX
  8
20
 10
0.0000
 20
43.0762
 30
0.0000
 42
1.0000
  0
VERTEX
  8
20
 10
0.0000
 20
42.9238
 30
0.0000
  0
SEQEND
  8
0
  0
POLYLINE
  8
20
 66
1
 10
0.0000
 20
0.0000
 30
0.0000
 40
0.1524
 41
0.1524
 70
0
  0
VERTEX
  8
20
 10
5.4000
 20
42.9238
 30
0.0000
 42
1.0000
  0
VERTEX
  8
20
 10
5.4000
 20
43.0762
 30
0.0000
  0
SEQEND
  8
0
  0
POLYLINE
  8
20
 66
1
 10
0.0000
 20
0.0000
 30
0.0000
 40
0.3048
 41
0.3048
 70
0
  0
VERTEX
  8
20
 10
76.0000
 20
43.0000
 30
0.0000
  0
VERTEX
  8
20
 10
76.0000
 20
83.0000
 30
0.0000
  0
SEQEND
  8
0
  0
POLYLINE
  8
20
 66
1
 10
0.0000
 20
0.0000
 30
0.0000
 40
0.1524
 41
0.1524
 70
0
  0
VERTEX
  8
20
 10
76.0762
 20
83.0000
 30
0.0000
 42
1.0000
  0
VERTEX
  8
20
 10
75.9238
 20
83.0000
 30
0.0000
  0
SEQEND
  8
0
  0
POLYLINE
  8
20
 66
1
 10
0.0000
 20
0.0000
 30
0.0000
 40
0.1524
 41
0.1524
 70
0
  0
VERTEX
  8
20
 10
75.9238
 20
43.0000
 30
0.0000
 42
1.0000
  0
VERTEX
  8
20
 10
76.0762
 20
43.0000
 30
0.0000
  0
SEQEND
  8
0
  0
POLYLINE
  8
20
 66
1
 10
0.0000
 20
0.0000
 30
0.0000
 40
0.3048
 41
0.3048
 70
0
  0
VERTEX
  8
20
 10
76.0000
 20
83.0000
 30
0.0000
  0
VERTEX
  8
20
 10
53.0000
 20
83.0000
 30
0.0000
  0
SEQEND
  8
0
  0
POLYLINE
  8
20
 66
1
 10
0.0000
 20
0.0000
 30
0.0000
 40
0.1524
 41
0.1524
 70
0
  0
VERTEX
  8
20
 10
53.0000
 20
83.0762
 30
0.0000
 42
1.0000
  0
VERTEX
  8
20
 10
53.0000
 20
82.9238
 30
0.0000
  0
SEQEND
  8
0
  0
POLYLINE
  8
20
 66
1
 10
0.0000
 20
0.0000
 30
0.0000
 40
0.1524
 41
0.1524
 70
0
  0
VERTEX
  8
20
 10
76.0000
 20
82.9238
 30
0.0000
 42
1.0000
  0
VERTEX
  8
20
 10
76.0000
 20
83.0762
 30
0.0000
  0
SEQEND
  8
0
  0
POLYLINE
  8
20
 66
1
 10
0.0000
 20
0.0000
 30
0.0000
 40
0.3048
 41
0.3048
 70
0
  0
VERTEX
  8
20
 10
5.4000
 20
40.0000
 30
0.0000
 42
0.8755
  0
VERTEX
  8
20
 10
5.4000
 20
43.0000
 30
0.0000
  0
SEQEND
  8
0
  0
POLYLINE
  8
20
 66
1
 10
0.0000
 20
0.0000
 30
0.0000
 40
0.1524
 41
0.1524
 70
0
  0
VERTEX
  8
20
 10
5.3899
 20
40.0755
 30
0.0000
 42
1.0000
  0
VERTEX
  8
20
 10
5.4101
 20
39.9245
 30
0.0000
  0
SEQEND
  8
0
  0
POLYLINE
  8
20
 66
1
 10
0.0000
 20
0.0000
 30
0.0000
 40
0.1524
 41
0.1524
 70
0
  0
VERTEX
  8
20
 10
5.4101
 20
43.0755
 30
0.0000
 42
1.0000
  0
VERTEX
  8
20
 10
5.3899
 20
42.9245
 30
0.0000
  0
SEQEND
  8
0
  0
POLYLINE
  8
20
 66
1
 10
0.0000
 20
0.0000
 30
0.0000
 40
0.3048
 41
0.3048
 70
0
  0
VERTEX
  8
20
 10
10.0000
 20
43.0000
 30
0.0000
 42
0.8755
  0
VERTEX
  8
20
 10
10.0000
 20
40.0000
 30
0.0000
  0
SEQEND
  8
0
  0
POLYLINE
  8
20
 66
1
 10
0.0000
 20
0.0000
 30
0.0000
 40
0.1524
 41
0.1524
 70
0
  0
VERTEX
  8
20
 10
10.0101
 20
42.9245
 30
0.0000
 42
1.0000
  0
VERTEX
  8
20
 10
9.9899
 20
43.0755
 30
0.0000
  0
SEQEND
  8
0
  0
POLYLINE
  8
20
 66
1
 10
0.0000
 20
0.0000
 30
0.0000
 40
0.1524
 41
0.1524
 70
0
  0
VERTEX
  8
20
 10
9.9899
 20
39.9245
 30
0.0000
 42
1.0000
  0
VERTEX
  8
20
 10
10.0101
 20
40.0755
 30
0.0000
  0
SEQEND
  8
0
  0
POLYLINE
  8
20
 66
1
 10
0.0000
 20
0.0000
 30
0.0000
 40
0.3048
 41
0.3048
 70
0
  0
VERTEX
  8
20
 10
50.0000
 20
43.0000
 30
0.0000
 42
0.8755
  0
VERTEX
  8
20
 10
50.0000
 20
40.0000
 30
0.0000
  0
SEQEND
  8
0
  0
POLYLINE
  8
20
 66
1
 10
0.0000
 20
0.0000
 30
0.0000
 40
0.1524
 41
0.1524
 70
0
  0
VERTEX
  8
20
 10
50.0101
 20
42.9245
 30
0.0000
 42
1.0000
  0
VERTEX
  8
20
 10
49.9899
 20
43.0755
 30
0.0000
  0
SEQEND
  8
0
  0
POLYLINE
  8
20
 66
1
 10
0.0000
 20
0.0000
 30
0.0000
 40
0.1524
 41
0.1524
 70
0
  0
VERTEX
  8
20
 10
49.9899
 20
39.9245
 30
0.0000
 42
1.0000
  0
VERTEX
  8
20
 10
50.0101
 20
40.0755
 30
0.0000
  0
SEQEND
  8
0
  0
POLYLINE
  8
20
 66
1
 10
0.0000
 20
0.0000
 30
0.0000
 40
0.3048
 41
0.3048
 70
0
  0
VERTEX
  8
20
 10
45.4000
 20
40.0000
 30
0.0000
 42
0.8755
  0
VERTEX
  8
20
 10
45.4000
 20
43.0000
 30
0.0000
  0
SEQEND
  8
0
  0
POLYLINE
  8
20
 66
1
 10
0.0000
 20
0.0000
 30
0.0000
 40
0.1524
 41
0.1524
 70
0
  0
VERTEX
  8
20
 10
45.3899
 20
40.0755
 30
0.0000
 42
1.0000
  0
VERTEX
  8
20
 10
45.4101
 20
39.9245
 30
0.0000
  0
SEQEND
  8
0
  0
POLYLINE
  8
20
 66
1
 10
0.0000
 20
0.0000
 30
0.0000
 40
0.1524
 41
0.1524
 70
0
  0
VERTEX
  8
20
 10
45.4101
 20
43.0755
 30
0.0000
 42
1.0000
  0
VERTEX
  8
20
 10
45.3899
 20
42.9245
 30
0.0000
  0
SEQEND
  8
0
  0
POLYLINE
  8
20
 66
1
 10
0.0000
 20
0.0000
 30
0.0000
 40
0.3048
 41
0.3048
 70
0
  0
VERTEX
  8
20
 10
50.0000
 20
80.8000
 30
0.0000
 42
0.8755
  0
VERTEX
  8
20
 10
53.0000
 20
80.8000
 30
0.0000
  0
SEQEND
  8
0
  0
POLYLINE
  8
20
 66
1
 10
0.0000
 20
0.0000
 30
0.0000
 40
0.1524
 41
0.1524
 70
0
  0
VERTEX
  8
20
 10
50.0755
 20
80.8101
 30
0.0000
 42
1.0000
  0
VERTEX
  8
20
 10
49.9245
 20
80.7899
 30
0.0000
  0
SEQEND
  8
0
  0
POLYLINE
  8
20
 66
1
 10
0.0000
 20
0.0000
 30
0.0000
 40
0.1524
 41
0.1524
 70
0
  0
VERTEX
  8
20
 10
53.0755
 20
80.7899
 30
0.0000
 42
1.0000
  0
VERTEX
  8
20
 10
52.9245
 20
80.8101
 30
0.0000
  0
SEQEND
  8
0
  0
POLYLINE
  8
20
 66
1
 10
0.0000
 20
0.0000
 30
0.0000
 40
0.3048
 41
0.3048
 70
0
  0
VERTEX
  8
20
 10
53.0000
 20
76.2000
 30
0.0000
 42
0.8755
  0
VERTEX
  8
20
 10
50.0000
 20
76.2000
 30
0.0000
  0
SEQEND
  8
0
  0
POLYLINE
  8
20
 66
1
 10
0.0000
 20
0.0000
 30
0.0000
 40
0.1524
 41
0.1524
 70
0
  0
VERTEX
  8
20
 10
52.9245
 20
76.1899
 30
0.0000
 42
1.0000
  0
VERTEX
  8
20
 10
53.0755
 20
76.2101
 30
0.0000
  0
SEQEND
  8
0
  0
POLYLINE
  8
20
 66
1
 10
0.0000
 20
0.0000
 30
0.0000
 40
0.1524
 41
0.1524
 70
0
  0
VERTEX
  8
20
 10
49.9245
 20
76.2101
 30
0.0000
 42
1.0000
  0
VERTEX
  8
20
 10
50.0755
 20
76.1899
 30
0.0000
  0
SEQEND
  8
0
  0
POLYLINE
  8
20
 66
1
 10
0.0000
 20
0.0000
 30
0.0000
 40
0.3048
 41
0.3048
 70
0
  0
VERTEX
  8
20
 10
64.8000
 20
43.0000
 30
0.0000
 42
0.8755
  0
VERTEX
  8
20
 10
64.8000
 20
40.0000
 30
0.0000
  0
SEQEND
  8
0
  0
POLYLINE
  8
20
 66
1
 10
0.0000
 20
0.0000
 30
0.0000
 40
0.1524
 41
0.1524
 70
0
  0
VERTEX
  8
20
 10
64.8101
 20
42.9245
 30
0.0000
 42
1.0000
  0
VERTEX
  8
20
 10
64.7899
 20
43.0755
 30
0.0000
  0
SEQEND
  8
0
  0
POLYLINE
  8
20
 66
1
 10
0.0000
 20
0.0000
 30
0.0000
 40
0.1524
 41
0.1524
 70
0
  0
VERTEX
  8
20
 10
64.7899
 20
39.9245
 30
0.0000
 42
1.0000
  0
VERTEX
  8
20
 10
64.8101
 20
40.0755
 30
0.0000
  0
SEQEND
  8
0
  0
POLYLINE
  8
20
 66
1
 10
0.0000
 20
0.0000
 30
0.0000
 40
0.3048
 41
0.3048
 70
0
  0
VERTEX
  8
20
 10
60.2000
 20
40.0000
 30
0.0000
 42
0.8755
  0
VERTEX
  8
20
 10
60.2000
 20
43.0000
 30
0.0000
  0
SEQEND
  8
0
  0
POLYLINE
  8
20
 66
1
 10
0.0000
 20
0.0000
 30
0.0000
 40
0.1524
 41
0.1524
 70
0
  0
VERTEX
  8
20
 10
60.1899
 20
40.0755
 30
0.0000
 42
1.0000
  0
VERTEX
  8
20
 10
60.2101
 20
39.9245
 30
0.0000
  0
SEQEND
  8
0
  0
POLYLINE
  8
20
 66
1
 10
0.0000
 20
0.0000
 30
0.0000
 40
0.1524
 41
0.1524
 70
0
  0
VERTEX
  8
20
 10
60.2101
 20
43.0755
 30
0.0000
 42
1.0000
  0
VERTEX
  8
20
 10
60.1899
 20
42.9245
 30
0.0000
  0
SEQEND
  8
0
  0
POLYLINE
  8
20
 66
1
 10
0.0000
 20
0.0000
 30
0.0000
 40
0.3048
 41
0.3048
 70
0
  0
VERTEX
  8
20
 10
50.0000
 20
47.6000
 30
0.0000
 42
0.8755
  0
VERTEX
  8
20
 10
53.0000
 20
47.6000
 30
0.0000
  0
SEQEND
  8
0
  0
POLYLINE
  8
20
 66
1
 10
0.0000
 20
0.0000
 30
0.0000
 40
0.1524
 41
0.1524
 70
0
  0
VERTEX
  8
20
 10
50.0755
 20
47.6101
 30
0.0000
 42
1.0000
  0
VERTEX
  8
20
 10
49.9245
 20
47.5899
 30
0.0000
  0
SEQEND
  8
0
  0
POLYLINE
  8
20
 66
1
 10
0.0000
 20
0.0000
 30
0.0000
 40
0.1524
 41
0.1524
 70
0
  0
VERTEX
  8
20
 10
53.0755
 20
47.5899
 30
0.0000
 42
1.0000
  0
VERTEX
  8
20
 10
52.9245
 20
47.6101
 30
0.0000
  0
SEQEND
  8
0
  0
POLYLINE
  8
20
 66
1
 10
0.0000
 20
0.0000
 30
0.0000
 40
0.3048
 41
0.3048
 70
0
  0
VERTEX
  8
20
 10
53.0000
 20
43.0000
 30
0.0000
 42
0.8755
  0
VERTEX
  8
20
 10
50.0000
 20
43.0000
 30
0.0000
  0
SEQEND
  8
0
  0
POLYLINE
  8
20
 66
1
 10
0.0000
 20
0.0000
 30
0.0000
 40
0.1524
 41
0.1524
 70
0
  0
VERTEX
  8
20
 10
52.9245
 20
42.9899
 30
0.0000
 42
1.0000
  0
VERTEX
  8
20
 10
53.0755
 20
43.0101
 30
0.0000
  0
SEQEND
  8
0
  0
POLYLINE
  8
20
 66
1
 10
0.0000
 20
0.0000
 30
0.0000
 40
0.1524
 41
0.1524
 70
0
  0
VERTEX
  8
20
 10
49.9245
 20
43.0101
 30
0.0000
 42
1.0000
  0
VERTEX
  8
20
 10
50.0755
 20
42.9899
 30
0.0000
  0
SEQEND
  8
0
  0
POLYLINE
  8
20
 66
1
 10
0.0000
 20
0.0000
 30
0.0000
 40
0.3048
 41
0.3048
 70
0
  0
VERTEX
  8
20
 10
50.0000
 20
40.0000
 30
0.0000
  0
VERTEX
  8
20
 10
60.2000
 20
40.0000
 30
0.0000
  0
SEQEND
  8
0
  0
POLYLINE
  8
20
 66
1
 10
0.0000
 20
0.0000
 30
0.0000
 40
0.1524
 41
0.1524
 70
0
  0
VERTEX
  8
20
 10
60.2000
 20
39.9238
 30
0.0000
 42
1.0000
  0
VERTEX
  8
20
 10
60.2000
 20
40.0762
 30
0.0000
  0
SEQEND
  8
0
  0
POLYLINE
  8
20
 66
1
 10
0.0000
 20
0.0000
 30
0.0000
 40
0.1524
 41
0.1524
 70
0
  0
VERTEX
  8
20
 10
50.0000
 20
40.0762
 30
0.0000
 42
1.0000
  0
VERTEX
  8
20
 10
50.0000
 20
39.9238
 30
0.0000
  0
SEQEND
  8
0
  0
POLYLINE
  8
20
 66
1
 10
0.0000
 20
0.0000
 30
0.0000
 40
0.3048
 41
0.3048
 70
0
  0
VERTEX
  8
20
 10
60.2000
 20
43.0000
 30
0.0000
  0
VERTEX
  8
20
 10
53.0000
 20
43.0000
 30
0.0000
  0
SEQEND
  8
0
  0
POLYLINE
  8
20
 66
1
 10
0.0000
 20
0.0000
 30
0.0000
 40
0.1524
 41
0.1524
 70
0
  0
VERTEX
  8
20
 10
53.0000
 20
43.0762
 30
0.0000
 42
1.0000
  0
VERTEX
  8
20
 10
53.0000
 20
42.9238
 30
0.0000
  0
SEQEND
  8
0
  0
POLYLINE
  8
20
 66
1
 10
0.0000
 20
0.0000
 30
0.0000
 40
0.1524
 41
0.1524
 70
0
  0
VERTEX
  8
20
 10
60.2000
 20
42.9238
 30
0.0000
 42
1.0000
  0
VERTEX
  8
20
 10
60.2000
 20
43.0762
 30
0.0000
  0
SEQEND
  8
0
  0
POLYLINE
  8
20
 66
1
 10
0.0000
 20
0.0000
 30
0.0000
 40
0.3048
 41
0.3048
 70
0
  0
VERTEX
  8
20
 10
64.8000
 20
40.0000
 30
0.0000
  0
VERTEX
  8
20
 10
66.8000
 20
40.0000
 30
0.0000
  0
SEQEND
  8
0
  0
POLYLINE
  8
20
 66
1
 10
0.0000
 20
0.0000
 30
0.0000
 40
0.1524
 41
0.1524
 70
0
  0
VERTEX
  8
20
 10
66.8000
 20
39.9238
 30
0.0000
 42
1.0000
  0
VERTEX
  8
20
 10
66.8000
 20
40.0762
 30
0.0000
  0
SEQEND
  8
0
  0
POLYLINE
  8
20
 66
1
 10
0.0000
 20
0.0000
 30
0.0000
 40
0.1524
 41
0.1524
 70
0
  0
VERTEX
  8
20
 10
64.8000
 20
40.0762
 30
0.0000
 42
1.0000
  0
VERTEX
  8
20
 10
64.8000
 20
39.9238
 30
0.0000
  0
SEQEND
  8
0
  0
POLYLINE
  8
20
 66
1
 10
0.0000
 20
0.0000
 30
0.0000
 40
0.3048
 41
0.3048
 70
0
  0
VERTEX
  8
20
 10
64.8000
 20
43.0000
 30
0.0000
  0
VERTEX
  8
20
 10
76.0000
 20
43.0000
 30
0.0000
  0
SEQEND
  8
0
  0
POLYLINE
  8
20
 66
1
 10
0.0000
 20
0.0000
 30
0.0000
 40
0.1524
 41
0.1524
 70
0
  0
VERTEX
  8
20
 10
76.0000
 20
42.9238
 30
0.0000
 42
1.0000
  0
VERTEX
  8
20
 10
76.0000
 20
43.0762
 30
0.0000
  0
SEQEND
  8
0
  0
POLYLINE
  8
20
 66
1
 10
0.0000
 20
0.0000
 30
0.0000
 40
0.1524
 41
0.1524
 70
0
  0
VERTEX
  8
20
 10
64.8000
 20
43.0762
 30
0.0000
 42
1.0000
  0
VERTEX
  8
20
 10
64.8000
 20
42.9238
 30
0.0000
  0
SEQEND
  8
0
  0
POLYLINE
  8
20
 66
1
 10
0.0000
 20
0.0000
 30
0.0000
 40
0.3048
 41
0.3048
 70
0
  0
VERTEX
  8
20
 10
50.0000
 20
47.6000
 30
0.0000
  0
VERTEX
  8
20
 10
50.0000
 20
76.2000
 30
0.0000
  0
SEQEND
  8
0
  0
POLYLINE
  8
20
 66
1
 10
0.0000
 20
0.0000
 30
0.0000
 40
0.1524
 41
0.1524
 70
0
  0
VERTEX
  8
20
 10
50.0762
 20
76.2000
 30
0.0000
 42
1.0000
  0
VERTEX
  8
20
 10
49.9238
 20
76.2000
 30
0.0000
  0
SEQEND
  8
0
  0
POLYLINE
  8
20
 66
1
 10
0.0000
 20
0.0000
 30
0.0000
 40
0.1524
 41
0.1524
 70
0
  0
VERTEX
  8
20
 10
49.9238
 20
47.6000
 30
0.0000
 42
1.0000
  0
VERTEX
  8
20
 10
50.0762
 20
47.6000
 30
0.0000
  0
SEQEND
  8
0
  0
POLYLINE
  8
20
 66
1
 10
0.0000
 20
0.0000
 30
0.0000
 40
0.3048
 41
0.3048
 70
0
  0
VERTEX
  8
20
 10
53.0000
 20
76.2000
 30
0.0000
  0
VERTEX
  8
20
 10
53.0000
 20
47.6000
 30
0.0000
  0
SEQEND
  8
0
  0
POLYLINE
  8
20
 66
1
 10
0.0000
 20
0.0000
 30
0.0000
 40
0.1524
 41
0.1524
 70
0
  0
VERTEX
  8
20
 10
52.9238
 20
47.6000
 30
0.0000
 42
1.0000
  0
VERTEX
  8
20
 10
53.0762
 20
47.6000
 30
0.0000
  0
SEQEND
  8
0
  0
POLYLINE
  8
20
 66
1
 10
0.0000
 20
0.0000
 30
0.0000
 40
0.1524
 41
0.1524
 70
0
  0
VERTEX
  8
20
 10
53.0762
 20
76.2000
 30
0.0000
 42
1.0000
  0
VERTEX
  8
20
 10
52.9238
 20
76.2000
 30
0.0000
  0
SEQEND
  8
0
  0
POLYLINE
  8
20
 66
1
 10
0.0000
 20
0.0000
 30
0.0000
 40
0.3048
 41
0.3048
 70
0
  0
VERTEX
  8
20
 10
53.0000
 20
83.0000
 30
0.0000
  0
VERTEX
  8
20
 10
53.0000
 20
80.8000
 30
0.0000
  0
SEQEND
  8
0
  0
POLYLINE
  8
20
 66
1
 10
0.0000
 20
0.0000
 30
0.0000
 40
0.1524
 41
0.1524
 70
0
  0
VERTEX
  8
20
 10
52.9238
 20
80.8000
 30
0.0000
 42
1.0000
  0
VERTEX
  8
20
 10
53.0762
 20
80.8000
 30
0.0000
  0
SEQEND
  8
0
  0
POLYLINE
  8
20
 66
1
 10
0.0000
 20
0.0000
 30
0.0000
 40
0.1524
 41
0.1524
 70
0
  0
VERTEX
  8
20
 10
53.0762
 20
83.0000
 30
0.0000
 42
1.0000
  0
VERTEX
  8
20
 10
52.9238
 20
83.0000
 30
0.0000
  0
SEQEND
  8
0
  0
POLYLINE
  8
20
 66
1
 10
0.0000
 20
0.0000
 30
0.0000
 40
0.3048
 41
0.3048
 70
0
  0
VERTEX
  8
20
 10
50.0000
 20
83.0000
 30
0.0000
  0
VERTEX
  8
20
 10
50.0000
 20
80.8000
 30
0.0000
  0
SEQEND
  8
0
  0
POLYLINE
  8
20
 66
1
 10
0.0000
 20
0.0000
 30
0.0000
 40
0.1524
 41
0.1524
 70
0
  0
VERTEX
  8
20
 10
49.9238
 20
80.8000
 30
0.0000
 42
1.0000
  0
VERTEX
  8
20
 10
50.0762
 20
80.8000
 30
0.0000
  0
SEQEND
  8
0
  0
POLYLINE
  8
20
 66
1
 10
0.0000
 20
0.0000
 30
0.0000
 40
0.1524
 41
0.1524
 70
0
  0
VERTEX
  8
20
 10
50.0762
 20
83.0000
 30
0.0000
 42
1.0000
  0
VERTEX
  8
20
 10
49.9238
 20
83.0000
 30
0.0000
  0
SEQEND
  8
0
  0
CIRCLE
  8
20
 10
2.0000
 20
81.0000
 30
0.0000
 40
1.5000
  0
CIRCLE
  8
20
 10
48.0000
 20
81.0000
 30
0.0000
 40
1.5000
  0
CIRCLE
  8
20
 10
48.0000
 20
45.0000
 30
0.0000
 40
1.5000
  0
CIRCLE
  8
20
 10
2.0000
 20
45.0000
 30
0.0000
 40
1.5000
  0
CIRCLE
  8
20
 10
74.0000
 20
45.0000
 30
0.0000
 40
1.5000
  0
INSERT
  8
17
  2
OCTAGONP
 10
35.1300
 20
37.3200
 30
0.0000
 41
1.4224
 42
1.4224
 43
1.0000
 50
180.0000
  0
INSERT
  8
17
  2
OCTAGONP
 10
35.1300
 20
37.3200
 30
0.0000
 41
1.4224
 42
1.4224
 43
1.0000
 50
180.0000
  0
INSERT
  8
17
  2
OCTAGONP
 10
27.5100
 20
37.3200
 30
0.0000
 41
1.4224
 42
1.4224
 43
1.0000
 50
180.0000
  0
INSERT
  8
17
  2
OCTAGONP
 10
27.5100
 20
37.3200
 30
0.0000
 41
1.4224
 42
1.4224
 43
1.0000
 50
180.0000
  0
INSERT
  8
17
  2
SQUAREP
 10
25.1400
 20
61.2000
 30
0.0000
 41
1.6510
 42
1.6510
 43
1.0000
 50
270.0000
  0
INSERT
  8
17
  2
SQUAREP
 10
25.1400
 20
61.2000
 30
0.0000
 41
1.6510
 42
1.6510
 43
1.0000
 50
270.0000
  0
INSERT
  8
17
  2
ROUNDP
 10
22.6000
 20
61.2000
 30
0.0000
 41
1.6510
 42
1.6510
 43
1.0000
 50
270.0000
  0
INSERT
  8
17
  2
ROUNDP
 10
22.6000
 20
61.2000
 30
0.0000
 41
1.6510
 42
1.6510
 43
1.0000
 50
270.0000
  0
INSERT
  8
17
  2
ROUNDP
 10
20.0600
 20
61.2000
 30
0.0000
 41
1.6510
 42
1.6510
 43
1.0000
 50
270.0000
  0
INSERT
  8
17
  2
ROUNDP
 10
20.0600
 20
61.2000
 30
0.0000
 41
1.6510
 42
1.6510
 43
1.0000
 50
270.0000
  0
INSERT
  8
17
  2
SQUAREP
 10
25.1400
 20
65.0000
 30
0.0000
 41
1.6510
 42
1.6510
 43
1.0000
 50
270.0000
  0
INSERT
  8
17
  2
SQUAREP
 10
25.1400
 20
65.0000
 30
0.0000
 41
1.6510
 42
1.6510
 43
1.0000
 50
270.0000
  0
INSERT
  8
17
  2
ROUNDP
 10
22.6000
 20
65.0000
 30
0.0000
 41
1.6510
 42
1.6510
 43
1.0000
 50
270.0000
  0
INSERT
  8
17
  2
ROUNDP
 10
22.6000
 20
65.0000
 30
0.0000
 41
1.6510
 42
1.6510
 43
1.0000
 50
270.0000
  0
INSERT
  8
17
  2
ROUNDP
 10
20.0600
 20
65.0000
 30
0.0000
 41
1.6510
 42
1.6510
 43
1.0000
 50
270.0000
  0
INSERT
  8
17
  2
ROUNDP
 10
20.0600
 20
65.0000
 30
0.0000
 41
1.6510
 42
1.6510
 43
1.0000
 50
270.0000
  0
INSERT
  8
17
  2
SQUAREP
 10
48.2000
 20
68.0800
 30
0.0000
 41
1.6510
 42
1.6510
 43
1.0000
 50
0.0000
  0
INSERT
  8
17
  2
SQUAREP
 10
48.2000
 20
68.0800
 30
0.0000
 41
1.6510
 42
1.6510
 43
1.0000
 50
0.0000
  0
INSERT
  8
17
  2
ROUNDP
 10
48.2000
 20
65.5400
 30
0.0000
 41
1.6510
 42
1.6510
 43
1.0000
 50
0.0000
  0
INSERT
  8
17
  2
ROUNDP
 10
48.2000
 20
65.5400
 30
0.0000
 41
1.6510
 42
1.6510
 43
1.0000
 50
0.0000
  0
INSERT
  8
17
  2
ROUNDP
 10
48.2000
 20
63.0000
 30
0.0000
 41
1.6510
 42
1.6510
 43
1.0000
 50
0.0000
  0
INSERT
  8
17
  2
ROUNDP
 10
48.2000
 20
63.0000
 30
0.0000
 41
1.6510
 42
1.6510
 43
1.0000
 50
0.0000
  0
INSERT
  8
17
  2
ROUNDP
 10
48.2000
 20
60.4600
 30
0.0000
 41
1.6510
 42
1.6510
 43
1.0000
 50
0.0000
  0
INSERT
  8
17
  2
ROUNDP
 10
48.2000
 20
60.4600
 30
0.0000
 41
1.6510
 42
1.6510
 43
1.0000
 50
0.0000
  0
INSERT
  8
17
  2
ROUNDP
 10
48.2000
 20
57.9200
 30
0.0000
 41
1.6510
 42
1.6510
 43
1.0000
 50
0.0000
  0
INSERT
  8
17
  2
ROUNDP
 10
48.2000
 20
57.9200
 30
0.0000
 41
1.6510
 42
1.6510
 43
1.0000
 50
0.0000
  0
INSERT
  8
17
  2
SQUAREP
 10
38.5300
 20
81.2000
 30
0.0000
 41
1.6510
 42
1.6510
 43
1.0000
 50
90.0000
  0
INSERT
  8
17
  2
SQUAREP
 10
38.5300
 20
81.2000
 30
0.0000
 41
1.6510
 42
1.6510
 43
1.0000
 50
90.0000
  0
INSERT
  8
17
  2
ROUNDP
 10
41.0700
 20
81.2000
 30
0.0000
 41
1.6510
 42
1.6510
 43
1.0000
 50
90.0000
  0
INSERT
  8
17
  2
ROUNDP
 10
41.0700
 20
81.2000
 30
0.0000
 41
1.6510
 42
1.6510
 43
1.0000
 50
90.0000
  0
INSERT
  8
17
  2
SQUAREP
 10
38.5300
 20
44.8000
 30
0.0000
 41
1.6510
 42
1.6510
 43
1.0000
 50
90.0000
  0
INSERT
  8
17
  2
SQUAREP
 10
38.5300
 20
44.8000
 30
0.0000
 41
1.6510
 42
1.6510
 43
1.0000
 50
90.0000
  0
INSERT
  8
17
  2
ROUNDP
 10
41.0700
 20
44.8000
 30
0.0000
 41
1.6510
 42
1.6510
 43
1.0000
 50
90.0000
  0
INSERT
  8
17
  2
ROUNDP
 10
41.0700
 20
44.8000
 30
0.0000
 41
1.6510
 42
1.6510
 43
1.0000
 50
90.0000
  0
INSERT
  8
17
  2
SQUAREP
 10
64.5300
 20
44.8000
 30
0.0000
 41
1.6510
 42
1.6510
 43
1.0000
 50
90.0000
  0
INSERT
  8
17
  2
SQUAREP
 10
64.5300
 20
44.8000
 30
0.0000
 41
1.6510
 42
1.6510
 43
1.0000
 50
90.0000
  0
INSERT
  8
17
  2
ROUNDP
 10
67.0700
 20
44.8000
 30
0.0000
 41
1.6510
 42
1.6510
 43
1.0000
 50
90.0000
  0
INSERT
  8
17
  2
ROUNDP
 10
67.0700
 20
44.8000
 30
0.0000
 41
1.6510
 42
1.6510
 43
1.0000
 50
90.0000
  0
INSERT
  8
17
  2
SQUAREP
 10
74.2000
 20
68.0800
 30
0.0000
 41
1.6510
 42
1.6510
 43
1.0000
 50
0.0000
  0
INSERT
  8
17
  2
SQUAREP
 10
74.2000
 20
68.0800
 30
0.0000
 41
1.6510
 42
1.6510
 43
1.0000
 50
0.0000
  0
INSERT
  8
17
  2
ROUNDP
 10
74.2000
 20
65.5400
 30
0.0000
 41
1.6510
 42
1.6510
 43
1.0000
 50
0.0000
  0
INSERT
  8
17
  2
ROUNDP
 10
74.2000
 20
65.5400
 30
0.0000
 41
1.6510
 42
1.6510
 43
1.0000
 50
0.0000
  0
INSERT
  8
17
  2
ROUNDP
 10
74.2000
 20
63.0000
 30
0.0000
 41
1.6510
 42
1.6510
 43
1.0000
 50
0.0000
  0
INSERT
  8
17
  2
ROUNDP
 10
74.2000
 20
63.0000
 30
0.0000
 41
1.6510
 42
1.6510
 43
1.0000
 50
0.0000
  0
INSERT
  8
17
  2
ROUNDP
 10
74.2000
 20
60.4600
 30
0.0000
 41
1.6510
 42
1.6510
 43
1.0000
 50
0.0000
  0
INSERT
  8
17
  2
ROUNDP
 10
74.2000
 20
60.4600
 30
0.0000
 41
1.6510
 42
1.6510
 43
1.0000
 50
0.0000
  0
INSERT
  8
17
  2
ROUNDP
 10
74.2000
 20
57.9200
 30
0.0000
 41
1.6510
 42
1.6510
 43
1.0000
 50
0.0000
  0
INSERT
  8
17
  2
ROUNDP
 10
74.2000
 20
57.9200
 30
0.0000
 41
1.6510
 42
1.6510
 43
1.0000
 50
0.0000
  0
INSERT
  8
17
  2
SQUAREP
 10
64.5300
 20
81.2000
 30
0.0000
 41
1.6510
 42
1.6510
 43
1.0000
 50
90.0000
  0
INSERT
  8
17
  2
SQUAREP
 10
64.5300
 20
81.2000
 30
0.0000
 41
1.6510
 42
1.6510
 43
1.0000
 50
90.0000
  0
INSERT
  8
17
  2
ROUNDP
 10
67.0700
 20
81.2000
 30
0.0000
 41
1.6510
 42
1.6510
 43
1.0000
 50
90.0000
  0
INSERT
  8
17
  2
ROUNDP
 10
67.0700
 20
81.2000
 30
0.0000
 41
1.6510
 42
1.6510
 43
1.0000
 50
90.0000
  0
INSERT
  8
17
  2
SQUAREP
 10
62.0100
 20
81.2000
 30
0.0000
 41
1.6510
 42
1.6510
 43
1.0000
 50
270.0000
  0
INSERT
  8
17
  2
SQUAREP
 10
62.0100
 20
81.2000
 30
0.0000
 41
1.6510
 42
1.6510
 43
1.0000
 50
270.0000
  0
INSERT
  8
17
  2
ROUNDP
 10
59.4700
 20
81.2000
 30
0.0000
 41
1.6510
 42
1.6510
 43
1.0000
 50
270.0000
  0
INSERT
  8
17
  2
ROUNDP
 10
59.4700
 20
81.2000
 30
0.0000
 41
1.6510
 42
1.6510
 43
1.0000
 50
270.0000
  0
INSERT
  8
17
  2
ROUNDP
 10
56.9300
 20
81.2000
 30
0.0000
 41
1.6510
 42
1.6510
 43
1.0000
 50
270.0000
  0
INSERT
  8
17
  2
ROUNDP
 10
56.9300
 20
81.2000
 30
0.0000
 41
1.6510
 42
1.6510
 43
1.0000
 50
270.0000
  0
INSERT
  8
17
  2
ROUNDP
 10
54.3900
 20
81.2000
 30
0.0000
 41
1.6510
 42
1.6510
 43
1.0000
 50
270.0000
  0
INSERT
  8
17
  2
ROUNDP
 10
54.3900
 20
81.2000
 30
0.0000
 41
1.6510
 42
1.6510
 43
1.0000
 50
270.0000
  0
INSERT
  8
17
  2
SQUAREP
 10
74.2000
 20
81.1400
 30
0.0000
 41
1.6510
 42
1.6510
 43
1.0000
 50
0.0000
  0
INSERT
  8
17
  2
SQUAREP
 10
74.2000
 20
81.1400
 30
0.0000
 41
1.6510
 42
1.6510
 43
1.0000
 50
0.0000
  0
INSERT
  8
17
  2
ROUNDP
 10
74.2000
 20
78.6000
 30
0.0000
 41
1.6510
 42
1.6510
 43
1.0000
 50
0.0000
  0
INSERT
  8
17
  2
ROUNDP
 10
74.2000
 20
78.6000
 30
0.0000
 41
1.6510
 42
1.6510
 43
1.0000
 50
0.0000
  0
INSERT
  8
17
  2
ROUNDP
 10
74.2000
 20
76.0600
 30
0.0000
 41
1.6510
 42
1.6510
 43
1.0000
 50
0.0000
  0
INSERT
  8
17
  2
ROUNDP
 10
74.2000
 20
76.0600
 30
0.0000
 41
1.6510
 42
1.6510
 43
1.0000
 50
0.0000
  0
INSERT
  8
17
  2
LONGP100
 10
49.7200
 20
3.2000
 30
0.0000
 41
1.5240
 42
1.5240
 43
1.0000
 50
90.0000
  0
INSERT
  8
17
  2
LONGP100
 10
49.7200
 20
3.2000
 30
0.0000
 41
1.5240
 42
1.5240
 43
1.0000
 50
90.0000
  0
INSERT
  8
17
  2
LONGP100
 10
52.2600
 20
3.2000
 30
0.0000
 41
1.5240
 42
1.5240
 43
1.0000
 50
90.0000
  0
INSERT
  8
17
  2
LONGP100
 10
52.2600
 20
3.2000
 30
0.0000
 41
1.5240
 42
1.5240
 43
1.0000
 50
90.0000
  0
INSERT
  8
17
  2
LONGP100
 10
54.8000
 20
3.2000
 30
0.0000
 41
1.5240
 42
1.5240
 43
1.0000
 50
90.0000
  0
INSERT
  8
17
  2
LONGP100
 10
54.8000
 20
3.2000
 30
0.0000
 41
1.5240
 42
1.5240
 43
1.0000
 50
90.0000
  0
INSERT
  8
17
  2
LONGP100
 10
57.3400
 20
3.2000
 30
0.0000
 41
1.5240
 42
1.5240
 43
1.0000
 50
90.0000
  0
INSERT
  8
17
  2
LONGP100
 10
57.3400
 20
3.2000
 30
0.0000
 41
1.5240
 42
1.5240
 43
1.0000
 50
90.0000
  0
INSERT
  8
17
  2
LONGP100
 10
59.8800
 20
3.2000
 30
0.0000
 41
1.5240
 42
1.5240
 43
1.0000
 50
90.0000
  0
INSERT
  8
17
  2
LONGP100
 10
59.8800
 20
3.2000
 30
0.0000
 41
1.5240
 42
1.5240
 43
1.0000
 50
90.0000
  0
INSERT
  8
17
  2
LONGP100
 10
64.8100
 20
28.0000
 30
0.0000
 41
1.5240
 42
1.5240
 43
1.0000
 50
270.0000
  0
INSERT
  8
17
  2
LONGP100
 10
64.8100
 20
28.0000
 30
0.0000
 41
1.5240
 42
1.5240
 43
1.0000
 50
270.0000
  0
INSERT
  8
17
  2
LONGP100
 10
62.2700
 20
28.0000
 30
0.0000
 41
1.5240
 42
1.5240
 43
1.0000
 50
270.0000
  0
INSERT
  8
17
  2
LONGP100
 10
62.2700
 20
28.0000
 30
0.0000
 41
1.5240
 42
1.5240
 43
1.0000
 50
270.0000
  0
INSERT
  8
17
  2
LONGP100
 10
59.7300
 20
28.0000
 30
0.0000
 41
1.5240
 42
1.5240
 43
1.0000
 50
270.0000
  0
INSERT
  8
17
  2
LONGP100
 10
59.7300
 20
28.0000
 30
0.0000
 41
1.5240
 42
1.5240
 43
1.0000
 50
270.0000
  0
INSERT
  8
17
  2
LONGP100
 10
57.1900
 20
28.0000
 30
0.0000
 41
1.5240
 42
1.5240
 43
1.0000
 50
270.0000
  0
INSERT
  8
17
  2
LONGP100
 10
57.1900
 20
28.0000
 30
0.0000
 41
1.5240
 42
1.5240
 43
1.0000
 50
270.0000
  0
INSERT
  8
17
  2
LONGP100
 10
82.3200
 20
3.2000
 30
0.0000
 41
1.5240
 42
1.5240
 43
1.0000
 50
90.0000
  0
INSERT
  8
17
  2
LONGP100
 10
82.3200
 20
3.2000
 30
0.0000
 41
1.5240
 42
1.5240
 43
1.0000
 50
90.0000
  0
INSERT
  8
17
  2
LONGP100
 10
84.8600
 20
3.2000
 30
0.0000
 41
1.5240
 42
1.5240
 43
1.0000
 50
90.0000
  0
INSERT
  8
17
  2
LONGP100
 10
84.8600
 20
3.2000
 30
0.0000
 41
1.5240
 42
1.5240
 43
1.0000
 50
90.0000
  0
INSERT
  8
17
  2
LONGP100
 10
87.4000
 20
3.2000
 30
0.0000
 41
1.5240
 42
1.5240
 43
1.0000
 50
90.0000
  0
INSERT
  8
17
  2
LONGP100
 10
87.4000
 20
3.2000
 30
0.0000
 41
1.5240
 42
1.5240
 43
1.0000
 50
90.0000
  0
INSERT
  8
17
  2
LONGP100
 10
89.9400
 20
3.2000
 30
0.0000
 41
1.5240
 42
1.5240
 43
1.0000
 50
90.0000
  0
INSERT
  8
17
  2
LONGP100
 10
89.9400
 20
3.2000
 30
0.0000
 41
1.5240
 42
1.5240
 43
1.0000
 50
90.0000
  0
INSERT
  8
17
  2
LONGP100
 10
92.4800
 20
3.2000
 30
0.0000
 41
1.5240
 42
1.5240
 43
1.0000
 50
90.0000
  0
INSERT
  8
17
  2
LONGP100
 10
92.4800
 20
3.2000
 30
0.0000
 41
1.5240
 42
1.5240
 43
1.0000
 50
90.0000
  0
INSERT
  8
17
  2
LONGP100
 10
97.4100
 20
28.0000
 30
0.0000
 41
1.5240
 42
1.5240
 43
1.0000
 50
270.0000
  0
INSERT
  8
17
  2
LONGP100
 10
97.4100
 20
28.0000
 30
0.0000
 41
1.5240
 42
1.5240
 43
1.0000
 50
270.0000
  0
INSERT
  8
17
  2
LONGP100
 10
94.8700
 20
28.0000
 30
0.0000
 41
1.5240
 42
1.5240
 43
1.0000
 50
270.0000
  0
INSERT
  8
17
  2
LONGP100
 10
94.8700
 20
28.0000
 30
0.0000
 41
1.5240
 42
1.5240
 43
1.0000
 50
270.0000
  0
INSERT
  8
17
  2
LONGP100
 10
92.3300
 20
28.0000
 30
0.0000
 41
1.5240
 42
1.5240
 43
1.0000
 50
270.0000
  0
INSERT
  8
17
  2
LONGP100
 10
92.3300
 20
28.0000
 30
0.0000
 41
1.5240
 42
1.5240
 43
1.0000
 50
270.0000
  0
INSERT
  8
17
  2
LONGP100
 10
89.7900
 20
28.0000
 30
0.0000
 41
1.5240
 42
1.5240
 43
1.0000
 50
270.0000
  0
INSERT
  8
17
  2
LONGP100
 10
89.7900
 20
28.0000
 30
0.0000
 41
1.5240
 42
1.5240
 43
1.0000
 50
270.0000
  0
INSERT
  8
17
  2
OCTAGONP
 10
94.9300
 20
34.7300
 30
0.0000
 41
1.5240
 42
1.5240
 43
1.0000
 50
0.0000
  0
INSERT
  8
17
  2
OCTAGONP
 10
94.9300
 20
34.7300
 30
0.0000
 41
1.5240
 42
1.5240
 43
1.0000
 50
0.0000
  0
INSERT
  8
17
  2
OCTAGONP
 10
94.9300
 20
37.2700
 30
0.0000
 41
1.5240
 42
1.5240
 43
1.0000
 50
0.0000
  0
INSERT
  8
17
  2
OCTAGONP
 10
94.9300
 20
37.2700
 30
0.0000
 41
1.5240
 42
1.5240
 43
1.0000
 50
0.0000
  0
INSERT
  8
17
  2
OCTAGONP
 10
97.4700
 20
34.7300
 30
0.0000
 41
1.5240
 42
1.5240
 43
1.0000
 50
0.0000
  0
INSERT
  8
17
  2
OCTAGONP
 10
97.4700
 20
34.7300
 30
0.0000
 41
1.5240
 42
1.5240
 43
1.0000
 50
0.0000
  0
INSERT
  8
17
  2
OCTAGONP
 10
97.4700
 20
37.2700
 30
0.0000
 41
1.5240
 42
1.5240
 43
1.0000
 50
0.0000
  0
INSERT
  8
17
  2
OCTAGONP
 10
97.4700
 20
37.2700
 30
0.0000
 41
1.5240
 42
1.5240
 43
1.0000
 50
0.0000
  0
INSERT
  8
17
  2
ROUNDP
 10
25.1000
 20
51.4900
 30
0.0000
 41
2.1000
 42
2.1000
 43
1.0000
 50
180.0000
  0
INSERT
  8
17
  2
ROUNDP
 10
25.1000
 20
51.4900
 30
0.0000
 41
2.1000
 42
2.1000
 43
1.0000
 50
180.0000
  0
INSERT
  8
17
  2
ROUNDP
 10
23.1000
 20
57.4900
 30
0.0000
 41
2.1000
 42
2.1000
 43
1.0000
 50
180.0000
  0
INSERT
  8
17
  2
ROUNDP
 10
23.1000
 20
57.4900
 30
0.0000
 41
2.1000
 42
2.1000
 43
1.0000
 50
180.0000
  0
INSERT
  8
17
  2
ROUNDP
 10
23.1000
 20
45.4900
 30
0.0000
 41
2.1000
 42
2.1000
 43
1.0000
 50
180.0000
  0
INSERT
  8
17
  2
ROUNDP
 10
23.1000
 20
45.4900
 30
0.0000
 41
2.1000
 42
2.1000
 43
1.0000
 50
180.0000
  0
INSERT
  8
17
  2
ROUNDP
 10
10.9000
 20
57.4900
 30
0.0000
 41
2.1000
 42
2.1000
 43
1.0000
 50
180.0000
  0
INSERT
  8
17
  2
ROUNDP
 10
10.9000
 20
57.4900
 30
0.0000
 41
2.1000
 42
2.1000
 43
1.0000
 50
180.0000
  0
INSERT
  8
17
  2
ROUNDP
 10
10.9000
 20
45.4900
 30
0.0000
 41
2.1000
 42
2.1000
 43
1.0000
 50
180.0000
  0
INSERT
  8
17
  2
ROUNDP
 10
10.9000
 20
45.4900
 30
0.0000
 41
2.1000
 42
2.1000
 43
1.0000
 50
180.0000
  0
INSERT
  8
17
  2
ROUNDP
 10
25.1000
 20
74.6600
 30
0.0000
 41
2.1000
 42
2.1000
 43
1.0000
 50
180.0000
  0
INSERT
  8
17
  2
ROUNDP
 10
25.1000
 20
74.6600
 30
0.0000
 41
2.1000
 42
2.1000
 43
1.0000
 50
180.0000
  0
INSERT
  8
17
  2
ROUNDP
 10
23.1000
 20
80.6600
 30
0.0000
 41
2.1000
 42
2.1000
 43
1.0000
 50
180.0000
  0
INSERT
  8
17
  2
ROUNDP
 10
23.1000
 20
80.6600
 30
0.0000
 41
2.1000
 42
2.1000
 43
1.0000
 50
180.0000
  0
INSERT
  8
17
  2
ROUNDP
 10
23.1000
 20
68.6600
 30
0.0000
 41
2.1000
 42
2.1000
 43
1.0000
 50
180.0000
  0
INSERT
  8
17
  2
ROUNDP
 10
23.1000
 20
68.6600
 30
0.0000
 41
2.1000
 42
2.1000
 43
1.0000
 50
180.0000
  0
INSERT
  8
17
  2
ROUNDP
 10
10.9000
 20
80.6600
 30
0.0000
 41
2.1000
 42
2.1000
 43
1.0000
 50
180.0000
  0
INSERT
  8
17
  2
ROUNDP
 10
10.9000
 20
80.6600
 30
0.0000
 41
2.1000
 42
2.1000
 43
1.0000
 50
180.0000
  0
INSERT
  8
17
  2
ROUNDP
 10
10.9000
 20
68.6600
 30
0.0000
 41
2.1000
 42
2.1000
 43
1.0000
 50
180.0000
  0
INSERT
  8
17
  2
ROUNDP
 10
10.9000
 20
68.6600
 30
0.0000
 41
2.1000
 42
2.1000
 43
1.0000
 50
180.0000
  0
INSERT
  8
17
  2
OCTAGONP
 10
39.5300
 20
2.8000
 30
0.0000
 41
1.3208
 42
1.3208
 43
1.0000
 50
0.0000
  0
INSERT
  8
17
  2
OCTAGONP
 10
39.5300
 20
2.8000
 30
0.0000
 41
1.3208
 42
1.3208
 43
1.0000
 50
0.0000
  0
INSERT
  8
17
  2
OCTAGONP
 10
42.0700
 20
2.8000
 30
0.0000
 41
1.3208
 42
1.3208
 43
1.0000
 50
0.0000
  0
INSERT
  8
17
  2
OCTAGONP
 10
42.0700
 20
2.8000
 30
0.0000
 41
1.3208
 42
1.3208
 43
1.0000
 50
0.0000
  0
INSERT
  8
17
  2
OCTAGONP
 10
46.4700
 20
2.8000
 30
0.0000
 41
1.3208
 42
1.3208
 43
1.0000
 50
180.0000
  0
INSERT
  8
17
  2
OCTAGONP
 10
46.4700
 20
2.8000
 30
0.0000
 41
1.3208
 42
1.3208
 43
1.0000
 50
180.0000
  0
INSERT
  8
17
  2
OCTAGONP
 10
43.9300
 20
2.8000
 30
0.0000
 41
1.3208
 42
1.3208
 43
1.0000
 50
180.0000
  0
INSERT
  8
17
  2
OCTAGONP
 10
43.9300
 20
2.8000
 30
0.0000
 41
1.3208
 42
1.3208
 43
1.0000
 50
180.0000
  0
INSERT
  8
17
  2
OCTAGONP
 10
46.8000
 20
50.7300
 30
0.0000
 41
1.3208
 42
1.3208
 43
1.0000
 50
90.0000
  0
INSERT
  8
17
  2
OCTAGONP
 10
46.8000
 20
50.7300
 30
0.0000
 41
1.3208
 42
1.3208
 43
1.0000
 50
90.0000
  0
INSERT
  8
17
  2
OCTAGONP
 10
46.8000
 20
53.2700
 30
0.0000
 41
1.3208
 42
1.3208
 43
1.0000
 50
90.0000
  0
INSERT
  8
17
  2
OCTAGONP
 10
46.8000
 20
53.2700
 30
0.0000
 41
1.3208
 42
1.3208
 43
1.0000
 50
90.0000
  0
INSERT
  8
17
  2
OCTAGONP
 10
46.8000
 20
75.2700
 30
0.0000
 41
1.3208
 42
1.3208
 43
1.0000
 50
270.0000
  0
INSERT
  8
17
  2
OCTAGONP
 10
46.8000
 20
75.2700
 30
0.0000
 41
1.3208
 42
1.3208
 43
1.0000
 50
270.0000
  0
INSERT
  8
17
  2
OCTAGONP
 10
46.8000
 20
72.7300
 30
0.0000
 41
1.3208
 42
1.3208
 43
1.0000
 50
270.0000
  0
INSERT
  8
17
  2
OCTAGONP
 10
46.8000
 20
72.7300
 30
0.0000
 41
1.3208
 42
1.3208
 43
1.0000
 50
270.0000
  0
INSERT
  8
17
  2
ROUNDP
 10
13.6900
 20
7.1100
 30
0.0000
 41
2.5400
 42
2.5400
 43
1.0000
 50
90.0000
  0
INSERT
  8
17
  2
ROUNDP
 10
13.6900
 20
7.1100
 30
0.0000
 41
2.5400
 42
2.5400
 43
1.0000
 50
90.0000
  0
INSERT
  8
17
  2
ROUNDP
 10
13.6900
 20
27.3100
 30
0.0000
 41
2.5400
 42
2.5400
 43
1.0000
 50
90.0000
  0
INSERT
  8
17
  2
ROUNDP
 10
13.6900
 20
27.3100
 30
0.0000
 41
2.5400
 42
2.5400
 43
1.0000
 50
90.0000
  0
INSERT
  8
17
  2
ROUNDP
 10
33.8900
 20
11.3100
 30
0.0000
 41
2.5400
 42
2.5400
 43
1.0000
 50
90.0000
  0
INSERT
  8
17
  2
ROUNDP
 10
33.8900
 20
11.3100
 30
0.0000
 41
2.5400
 42
2.5400
 43
1.0000
 50
90.0000
  0
INSERT
  8
17
  2
ROUNDP
 10
33.8900
 20
23.1100
 30
0.0000
 41
2.5400
 42
2.5400
 43
1.0000
 50
90.0000
  0
INSERT
  8
17
  2
ROUNDP
 10
33.8900
 20
23.1100
 30
0.0000
 41
2.5400
 42
2.5400
 43
1.0000
 50
90.0000
  0
INSERT
  8
17
  2
LONGP100
 10
56.9800
 20
33.5400
 30
0.0000
 41
1.3208
 42
1.3208
 43
1.0000
 50
180.0000
  0
INSERT
  8
17
  2
LONGP100
 10
56.9800
 20
33.5400
 30
0.0000
 41
1.3208
 42
1.3208
 43
1.0000
 50
180.0000
  0
INSERT
  8
17
  2
LONGP100
 10
56.9800
 20
36.0800
 30
0.0000
 41
1.3208
 42
1.3208
 43
1.0000
 50
180.0000
  0
INSERT
  8
17
  2
LONGP100
 10
56.9800
 20
36.0800
 30
0.0000
 41
1.3208
 42
1.3208
 43
1.0000
 50
180.0000
  0
INSERT
  8
17
  2
LONGP100
 10
56.9800
 20
38.6200
 30
0.0000
 41
1.3208
 42
1.3208
 43
1.0000
 50
180.0000
  0
INSERT
  8
17
  2
LONGP100
 10
56.9800
 20
38.6200
 30
0.0000
 41
1.3208
 42
1.3208
 43
1.0000
 50
180.0000
  0
INSERT
  8
17
  2
LONGP100
 10
49.3600
 20
38.6200
 30
0.0000
 41
1.3208
 42
1.3208
 43
1.0000
 50
180.0000
  0
INSERT
  8
17
  2
LONGP100
 10
49.3600
 20
38.6200
 30
0.0000
 41
1.3208
 42
1.3208
 43
1.0000
 50
180.0000
  0
INSERT
  8
17
  2
LONGP100
 10
49.3600
 20
36.0800
 30
0.0000
 41
1.3208
 42
1.3208
 43
1.0000
 50
180.0000
  0
INSERT
  8
17
  2
LONGP100
 10
49.3600
 20
36.0800
 30
0.0000
 41
1.3208
 42
1.3208
 43
1.0000
 50
180.0000
  0
INSERT
  8
17
  2
LONGP100
 10
49.3600
 20
33.5400
 30
0.0000
 41
1.3208
 42
1.3208
 43
1.0000
 50
180.0000
  0
INSERT
  8
17
  2
LONGP100
 10
49.3600
 20
33.5400
 30
0.0000
 41
1.3208
 42
1.3208
 43
1.0000
 50
180.0000
  0
INSERT
  8
17
  2
LONGP100
 10
17.3400
 20
36.6800
 30
0.0000
 41
1.3080
 42
1.3080
 43
1.0000
 50
90.0000
  0
INSERT
  8
17
  2
LONGP100
 10
17.3400
 20
36.6800
 30
0.0000
 41
1.3080
 42
1.3080
 43
1.0000
 50
90.0000
  0
INSERT
  8
17
  2
LONGP100
 10
12.2600
 20
36.6800
 30
0.0000
 41
1.3080
 42
1.3080
 43
1.0000
 50
90.0000
  0
INSERT
  8
17
  2
LONGP100
 10
12.2600
 20
36.6800
 30
0.0000
 41
1.3080
 42
1.3080
 43
1.0000
 50
90.0000
  0
INSERT
  8
17
  2
LONGP100
 10
14.8000
 20
36.6800
 30
0.0000
 41
1.3080
 42
1.3080
 43
1.0000
 50
90.0000
  0
INSERT
  8
17
  2
LONGP100
 10
14.8000
 20
36.6800
 30
0.0000
 41
1.3080
 42
1.3080
 43
1.0000
 50
90.0000
  0
INSERT
  8
17
  2
ROUNDP
 10
85.4600
 20
38.0000
 30
0.0000
 41
2.0000
 42
2.0000
 43
1.0000
 50
180.0000
  0
INSERT
  8
17
  2
ROUNDP
 10
85.4600
 20
38.0000
 30
0.0000
 41
2.0000
 42
2.0000
 43
1.0000
 50
180.0000
  0
INSERT
  8
17
  2
ROUNDP
 10
85.4600
 20
35.4600
 30
0.0000
 41
2.0000
 42
2.0000
 43
1.0000
 50
180.0000
  0
INSERT
  8
17
  2
ROUNDP
 10
85.4600
 20
35.4600
 30
0.0000
 41
2.0000
 42
2.0000
 43
1.0000
 50
180.0000
  0
INSERT
  8
17
  2
ROUNDP
 10
88.0000
 20
38.0000
 30
0.0000
 41
2.0000
 42
2.0000
 43
1.0000
 50
180.0000
  0
INSERT
  8
17
  2
ROUNDP
 10
88.0000
 20
38.0000
 30
0.0000
 41
2.0000
 42
2.0000
 43
1.0000
 50
180.0000
  0
INSERT
  8
17
  2
ROUNDP
 10
80.3800
 20
35.4600
 30
0.0000
 41
2.0000
 42
2.0000
 43
1.0000
 50
180.0000
  0
INSERT
  8
17
  2
ROUNDP
 10
80.3800
 20
35.4600
 30
0.0000
 41
2.0000
 42
2.0000
 43
1.0000
 50
180.0000
  0
INSERT
  8
17
  2
ROUNDP
 10
80.3800
 20
38.0000
 30
0.0000
 41
2.0000
 42
2.0000
 43
1.0000
 50
180.0000
  0
INSERT
  8
17
  2
ROUNDP
 10
80.3800
 20
38.0000
 30
0.0000
 41
2.0000
 42
2.0000
 43
1.0000
 50
180.0000
  0
INSERT
  8
17
  2
ROUNDP
 10
82.9200
 20
35.4600
 30
0.0000
 41
2.0000
 42
2.0000
 43
1.0000
 50
180.0000
  0
INSERT
  8
17
  2
ROUNDP
 10
82.9200
 20
35.4600
 30
0.0000
 41
2.0000
 42
2.0000
 43
1.0000
 50
180.0000
  0
INSERT
  8
17
  2
ROUNDP
 10
82.9200
 20
38.0000
 30
0.0000
 41
2.0000
 42
2.0000
 43
1.0000
 50
180.0000
  0
INSERT
  8
17
  2
ROUNDP
 10
82.9200
 20
38.0000
 30
0.0000
 41
2.0000
 42
2.0000
 43
1.0000
 50
180.0000
  0
INSERT
  8
17
  2
ROUNDP
 10
88.0000
 20
35.4600
 30
0.0000
 41
2.0000
 42
2.0000
 43
1.0000
 50
180.0000
  0
INSERT
  8
17
  2
ROUNDP
 10
88.0000
 20
35.4600
 30
0.0000
 41
2.0000
 42
2.0000
 43
1.0000
 50
180.0000
  0
INSERT
  8
17
  2
ROUNDP
 10
58.1300
 20
47.4700
 30
0.0000
 41
2.0000
 42
2.0000
 43
1.0000
 50
0.0000
  0
INSERT
  8
17
  2
ROUNDP
 10
58.1300
 20
47.4700
 30
0.0000
 41
2.0000
 42
2.0000
 43
1.0000
 50
0.0000
  0
INSERT
  8
17
  2
ROUNDP
 10
58.1300
 20
50.0100
 30
0.0000
 41
2.0000
 42
2.0000
 43
1.0000
 50
0.0000
  0
INSERT
  8
17
  2
ROUNDP
 10
58.1300
 20
50.0100
 30
0.0000
 41
2.0000
 42
2.0000
 43
1.0000
 50
0.0000
  0
INSERT
  8
17
  2
ROUNDP
 10
55.5900
 20
47.4700
 30
0.0000
 41
2.0000
 42
2.0000
 43
1.0000
 50
0.0000
  0
INSERT
  8
17
  2
ROUNDP
 10
55.5900
 20
47.4700
 30
0.0000
 41
2.0000
 42
2.0000
 43
1.0000
 50
0.0000
  0
INSERT
  8
17
  2
ROUNDP
 10
63.2100
 20
50.0100
 30
0.0000
 41
2.0000
 42
2.0000
 43
1.0000
 50
0.0000
  0
INSERT
  8
17
  2
ROUNDP
 10
63.2100
 20
50.0100
 30
0.0000
 41
2.0000
 42
2.0000
 43
1.0000
 50
0.0000
  0
INSERT
  8
17
  2
ROUNDP
 10
63.2100
 20
47.4700
 30
0.0000
 41
2.0000
 42
2.0000
 43
1.0000
 50
0.0000
  0
INSERT
  8
17
  2
ROUNDP
 10
63.2100
 20
47.4700
 30
0.0000
 41
2.0000
 42
2.0000
 43
1.0000
 50
0.0000
  0
INSERT
  8
17
  2
ROUNDP
 10
60.6700
 20
50.0100
 30
0.0000
 41
2.0000
 42
2.0000
 43
1.0000
 50
0.0000
  0
INSERT
  8
17
  2
ROUNDP
 10
60.6700
 20
50.0100
 30
0.0000
 41
2.0000
 42
2.0000
 43
1.0000
 50
0.0000
  0
INSERT
  8
17
  2
ROUNDP
 10
60.6700
 20
47.4700
 30
0.0000
 41
2.0000
 42
2.0000
 43
1.0000
 50
0.0000
  0
INSERT
  8
17
  2
ROUNDP
 10
60.6700
 20
47.4700
 30
0.0000
 41
2.0000
 42
2.0000
 43
1.0000
 50
0.0000
  0
INSERT
  8
17
  2
ROUNDP
 10
55.5900
 20
50.0100
 30
0.0000
 41
2.0000
 42
2.0000
 43
1.0000
 50
0.0000
  0
INSERT
  8
17
  2
ROUNDP
 10
55.5900
 20
50.0100
 30
0.0000
 41
2.0000
 42
2.0000
 43
1.0000
 50
0.0000
  0
INSERT
  8
17
  2
LONGP100
 10
4.1100
 20
27.5184
 30
0.0000
 41
1.9812
 42
1.9812
 43
1.0000
 50
180.0000
  0
INSERT
  8
17
  2
LONGP100
 10
4.1100
 20
27.5184
 30
0.0000
 41
1.9812
 42
1.9812
 43
1.0000
 50
180.0000
  0
INSERT
  8
17
  2
LONGP100
 10
4.1100
 20
22.4892
 30
0.0000
 41
1.9812
 42
1.9812
 43
1.0000
 50
180.0000
  0
INSERT
  8
17
  2
LONGP100
 10
4.1100
 20
22.4892
 30
0.0000
 41
1.9812
 42
1.9812
 43
1.0000
 50
180.0000
  0
INSERT
  8
17
  2
LONGP100
 10
4.1100
 20
17.5108
 30
0.0000
 41
1.9812
 42
1.9812
 43
1.0000
 50
180.0000
  0
INSERT
  8
17
  2
LONGP100
 10
4.1100
 20
17.5108
 30
0.0000
 41
1.9812
 42
1.9812
 43
1.0000
 50
180.0000
  0
INSERT
  8
17
  2
LONGP100
 10
4.1100
 20
12.4816
 30
0.0000
 41
1.9812
 42
1.9812
 43
1.0000
 50
180.0000
  0
INSERT
  8
17
  2
LONGP100
 10
4.1100
 20
12.4816
 30
0.0000
 41
1.9812
 42
1.9812
 43
1.0000
 50
180.0000
  0
INSERT
  8
17
  2
LONGP100
 10
65.9900
 20
22.5146
 30
0.0000
 41
1.9812
 42
1.9812
 43
1.0000
 50
0.0000
  0
INSERT
  8
17
  2
LONGP100
 10
65.9900
 20
22.5146
 30
0.0000
 41
1.9812
 42
1.9812
 43
1.0000
 50
0.0000
  0
INSERT
  8
17
  2
LONGP100
 10
65.9900
 20
17.4854
 30
0.0000
 41
1.9812
 42
1.9812
 43
1.0000
 50
0.0000
  0
INSERT
  8
17
  2
LONGP100
 10
65.9900
 20
17.4854
 30
0.0000
 41
1.9812
 42
1.9812
 43
1.0000
 50
0.0000
  0
INSERT
  8
17
  2
LONGP100
 10
4.2000
 20
75.5222
 30
0.0000
 41
1.9812
 42
1.9812
 43
1.0000
 50
0.0000
  0
INSERT
  8
17
  2
LONGP100
 10
4.2000
 20
75.5222
 30
0.0000
 41
1.9812
 42
1.9812
 43
1.0000
 50
0.0000
  0
INSERT
  8
17
  2
LONGP100
 10
4.2000
 20
70.5184
 30
0.0000
 41
1.9812
 42
1.9812
 43
1.0000
 50
0.0000
  0
INSERT
  8
17
  2
LONGP100
 10
4.2000
 20
70.5184
 30
0.0000
 41
1.9812
 42
1.9812
 43
1.0000
 50
0.0000
  0
INSERT
  8
17
  2
LONGP100
 10
4.2000
 20
65.5146
 30
0.0000
 41
1.9812
 42
1.9812
 43
1.0000
 50
0.0000
  0
INSERT
  8
17
  2
LONGP100
 10
4.2000
 20
65.5146
 30
0.0000
 41
1.9812
 42
1.9812
 43
1.0000
 50
0.0000
  0
INSERT
  8
17
  2
LONGP100
 10
4.2000
 20
60.4854
 30
0.0000
 41
1.9812
 42
1.9812
 43
1.0000
 50
0.0000
  0
INSERT
  8
17
  2
LONGP100
 10
4.2000
 20
60.4854
 30
0.0000
 41
1.9812
 42
1.9812
 43
1.0000
 50
0.0000
  0
INSERT
  8
17
  2
LONGP100
 10
4.2000
 20
55.4816
 30
0.0000
 41
1.9812
 42
1.9812
 43
1.0000
 50
0.0000
  0
INSERT
  8
17
  2
LONGP100
 10
4.2000
 20
55.4816
 30
0.0000
 41
1.9812
 42
1.9812
 43
1.0000
 50
0.0000
  0
INSERT
  8
17
  2
LONGP100
 10
4.2000
 20
50.4778
 30
0.0000
 41
1.9812
 42
1.9812
 43
1.0000
 50
0.0000
  0
INSERT
  8
17
  2
LONGP100
 10
4.2000
 20
50.4778
 30
0.0000
 41
1.9812
 42
1.9812
 43
1.0000
 50
0.0000
  0
INSERT
  8
18
  2
ROUNDV
 10
55.6000
 20
52.4000
 30
0.0000
 41
1.0160
 42
1.0160
 43
1.0000
 50
0.0000
  0
INSERT
  8
18
  2
ROUNDV
 10
54.2000
 20
23.2000
 30
0.0000
 41
1.2700
 42
1.2700
 43
1.0000
 50
0.0000
  0
INSERT
  8
18
  2
ROUNDV
 10
75.4000
 20
8.8000
 30
0.0000
 41
1.0160
 42
1.0160
 43
1.0000
 50
0.0000
  0
INSERT
  8
18
  2
ROUNDV
 10
78.6000
 20
20.4000
 30
0.0000
 41
1.0160
 42
1.0160
 43
1.0000
 50
0.0000
  0
INSERT
  8
18
  2
ROUNDV
 10
89.8000
 20
25.0000
 30
0.0000
 41
1.0160
 42
1.0160
 43
1.0000
 50
0.0000
  0
INSERT
  8
18
  2
ROUNDV
 10
99.4000
 20
2.8000
 30
0.0000
 41
1.0160
 42
1.0160
 43
1.0000
 50
0.0000
  0
INSERT
  8
18
  2
ROUNDV
 10
89.8000
 20
33.0000
 30
0.0000
 41
1.0160
 42
1.0160
 43
1.0000
 50
0.0000
  0
INSERT
  8
18
  2
ROUNDV
 10
38.6000
 20
62.8000
 30
0.0000
 41
1.2700
 42
1.2700
 43
1.0000
 50
0.0000
  0
INSERT
  8
18
  2
ROUNDV
 10
44.8000
 20
63.0000
 30
0.0000
 41
1.2700
 42
1.2700
 43
1.0000
 50
0.0000
  0
INSERT
  8
18
  2
ROUNDV
 10
60.6000
 20
78.4000
 30
0.0000
 41
1.0160
 42
1.0160
 43
1.0000
 50
0.0000
  0
INSERT
  8
18
  2
ROUNDV
 10
6.2000
 20
79.2000
 30
0.0000
 41
1.2700
 42
1.2700
 43
1.0000
 50
0.0000
  0
INSERT
  8
18
  2
ROUNDV
 10
17.8000
 20
63.2000
 30
0.0000
 41
1.2700
 42
1.2700
 43
1.0000
 50
0.0000
  0
INSERT
  8
18
  2
ROUNDV
 10
32.6000
 20
59.4000
 30
0.0000
 41
1.2700
 42
1.2700
 43
1.0000
 50
0.0000
  0
INSERT
  8
18
  2
ROUNDV
 10
7.4000
 20
70.6000
 30
0.0000
 41
1.2700
 42
1.2700
 43
1.0000
 50
0.0000
  0
INSERT
  8
18
  2
ROUNDV
 10
24.8000
 20
48.2000
 30
0.0000
 41
1.2700
 42
1.2700
 43
1.0000
 50
0.0000
  0
INSERT
  8
18
  2
ROUNDV
 10
28.2000
 20
60.0000
 30
0.0000
 41
1.2700
 42
1.2700
 43
1.0000
 50
0.0000
  0
INSERT
  8
18
  2
ROUNDV
 10
8.0000
 20
80.8000
 30
0.0000
 41
1.2700
 42
1.2700
 43
1.0000
 50
0.0000
  0
INSERT
  8
18
  2
ROUNDV
 10
16.8000
 20
80.8000
 30
0.0000
 41
1.2700
 42
1.2700
 43
1.0000
 50
0.0000
  0
INSERT
  8
18
  2
ROUNDV
 10
97.2000
 20
30.8000
 30
0.0000
 41
1.0160
 42
1.0160
 43
1.0000
 50
0.0000
  0
INSERT
  8
18
  2
ROUNDV
 10
92.6000
 20
18.8000
 30
0.0000
 41
1.0160
 42
1.0160
 43
1.0000
 50
0.0000
  0
INSERT
  8
18
  2
ROUNDV
 10
85.2000
 20
26.4000
 30
0.0000
 41
1.0160
 42
1.0160
 43
1.0000
 50
0.0000
  0
INSERT
  8
18
  2
ROUNDV
 10
87.2000
 20
10.0000
 30
0.0000
 41
1.0160
 42
1.0160
 43
1.0000
 50
0.0000
  0
INSERT
  8
18
  2
ROUNDV
 10
84.6000
 20
10.0000
 30
0.0000
 41
1.0160
 42
1.0160
 43
1.0000
 50
0.0000
  0
INSERT
  8
18
  2
ROUNDV
 10
84.0000
 20
27.6000
 30
0.0000
 41
1.0160
 42
1.0160
 43
1.0000
 50
0.0000
  0
INSERT
  8
18
  2
ROUNDV
 10
62.0000
 20
3.2000
 30
0.0000
 41
1.2700
 42
1.2700
 43
1.0000
 50
0.0000
  0
INSERT
  8
18
  2
ROUNDV
 10
94.6000
 20
3.2000
 30
0.0000
 41
1.2700
 42
1.2700
 43
1.0000
 50
0.0000
  0
INSERT
  8
18
  2
ROUNDV
 10
83.6000
 20
18.8000
 30
0.0000
 41
1.0160
 42
1.0160
 43
1.0000
 50
0.0000
  0
INSERT
  8
18
  2
ROUNDV
 10
75.2000
 20
23.6000
 30
0.0000
 41
1.0160
 42
1.0160
 43
1.0000
 50
0.0000
  0
INSERT
  8
18
  2
ROUNDV
 10
89.8000
 20
38.2000
 30
0.0000
 41
1.0160
 42
1.0160
 43
1.0000
 50
0.0000
  0
INSERT
  8
18
  2
ROUNDV
 10
87.6000
 20
14.0000
 30
0.0000
 41
1.0160
 42
1.0160
 43
1.0000
 50
0.0000
  0
INSERT
  8
18
  2
ROUNDV
 10
84.6000
 20
14.0000
 30
0.0000
 41
1.0160
 42
1.0160
 43
1.0000
 50
0.0000
  0
INSERT
  8
18
  2
ROUNDV
 10
100.6000
 20
12.2000
 30
0.0000
 41
1.0160
 42
1.0160
 43
1.0000
 50
0.0000
  0
INSERT
  8
18
  2
ROUNDV
 10
100.8000
 20
27.4000
 30
0.0000
 41
1.0160
 42
1.0160
 43
1.0000
 50
0.0000
  0
INSERT
  8
18
  2
ROUNDV
 10
48.0000
 20
77.6000
 30
0.0000
 41
1.2700
 42
1.2700
 43
1.0000
 50
0.0000
  0
INSERT
  8
18
  2
ROUNDV
 10
40.4000
 20
69.6000
 30
0.0000
 41
1.2700
 42
1.2700
 43
1.0000
 50
0.0000
  0
INSERT
  8
18
  2
ROUNDV
 10
55.6000
 20
54.0000
 30
0.0000
 41
1.0160
 42
1.0160
 43
1.0000
 50
0.0000
  0
INSERT
  8
18
  2
ROUNDV
 10
80.0000
 20
33.0000
 30
0.0000
 41
1.0160
 42
1.0160
 43
1.0000
 50
0.0000
  0
INSERT
  8
18
  2
ROUNDV
 10
46.0000
 20
60.0000
 30
0.0000
 41
1.2700
 42
1.2700
 43
1.0000
 50
0.0000
  0
INSERT
  8
18
  2
ROUNDV
 10
46.0000
 20
65.4000
 30
0.0000
 41
1.2700
 42
1.2700
 43
1.0000
 50
0.0000
  0
INSERT
  8
18
  2
ROUNDV
 10
46.0000
 20
70.4000
 30
0.0000
 41
1.2700
 42
1.2700
 43
1.0000
 50
0.0000
  0
INSERT
  8
18
  2
ROUNDV
 10
43.2000
 20
80.6000
 30
0.0000
 41
1.2700
 42
1.2700
 43
1.0000
 50
0.0000
  0
INSERT
  8
18
  2
ROUNDV
 10
61.8000
 20
31.2000
 30
0.0000
 41
1.2700
 42
1.2700
 43
1.0000
 50
0.0000
  0
INSERT
  8
18
  2
ROUNDV
 10
83.0000
 20
33.0000
 30
0.0000
 41
1.0160
 42
1.0160
 43
1.0000
 50
0.0000
  0
INSERT
  8
18
  2
ROUNDV
 10
86.6000
 20
30.4000
 30
0.0000
 41
1.0160
 42
1.0160
 43
1.0000
 50
0.0000
  0
INSERT
  8
18
  2
ROUNDV
 10
21.6000
 20
34.6000
 30
0.0000
 41
1.2700
 42
1.2700
 43
1.0000
 50
0.0000
  0
INSERT
  8
18
  2
ROUNDV
 10
45.2000
 20
27.2000
 30
0.0000
 41
1.2700
 42
1.2700
 43
1.0000
 50
0.0000
  0
INSERT
  8
18
  2
ROUNDV
 10
35.2000
 20
19.4000
 30
0.0000
 41
1.2700
 42
1.2700
 43
1.0000
 50
0.0000
  0
INSERT
  8
18
  2
ROUNDV
 10
35.2000
 20
15.8000
 30
0.0000
 41
1.2700
 42
1.2700
 43
1.0000
 50
0.0000
  0
INSERT
  8
18
  2
ROUNDV
 10
3.2000
 20
36.8000
 30
0.0000
 41
6.0000
 42
6.0000
 43
1.0000
 50
0.0000
  0
INSERT
  8
18
  2
ROUNDV
 10
3.2000
 20
3.2000
 30
0.0000
 41
6.0000
 42
6.0000
 43
1.0000
 50
0.0000
  0
INSERT
  8
18
  2
ROUNDV
 10
66.8000
 20
36.8000
 30
0.0000
 41
6.0000
 42
6.0000
 43
1.0000
 50
0.0000
  0
INSERT
  8
18
  2
ROUNDV
 10
18.4000
 20
34.2000
 30
0.0000
 41
1.2700
 42
1.2700
 43
1.0000
 50
0.0000
  0
INSERT
  8
18
  2
ROUNDV
 10
10.4000
 20
33.0000
 30
0.0000
 41
1.2700
 42
1.2700
 43
1.0000
 50
0.0000
  0
INSERT
  8
18
  2
ROUNDV
 10
7.8000
 20
12.4000
 30
0.0000
 41
1.2700
 42
1.2700
 43
1.0000
 50
0.0000
  0
INSERT
  8
18
  2
ROUNDV
 10
33.8000
 20
29.8000
 30
0.0000
 41
1.2700
 42
1.2700
 43
1.0000
 50
0.0000
  0
INSERT
  8
18
  2
ROUNDV
 10
24.4000
 20
34.6000
 30
0.0000
 41
1.2700
 42
1.2700
 43
1.0000
 50
0.0000
  0
INSERT
  8
18
  2
ROUNDV
 10
66.8000
 20
3.2000
 30
0.0000
 41
6.0000
 42
6.0000
 43
1.0000
 50
0.0000
  0
INSERT
  8
18
  2
ROUNDV
 10
42.6000
 20
6.2000
 30
0.0000
 41
1.2700
 42
1.2700
 43
1.0000
 50
0.0000
  0
INSERT
  8
18
  2
ROUNDV
 10
53.6000
 20
6.4000
 30
0.0000
 41
1.2700
 42
1.2700
 43
1.0000
 50
0.0000
  0
INSERT
  8
18
  2
ROUNDV
 10
55.6000
 20
6.4000
 30
0.0000
 41
1.2700
 42
1.2700
 43
1.0000
 50
0.0000
  0
INSERT
  8
18
  2
ROUNDV
 10
57.2000
 20
6.4000
 30
0.0000
 41
1.2700
 42
1.2700
 43
1.0000
 50
0.0000
  0
INSERT
  8
18
  2
ROUNDV
 10
25.6000
 20
57.4000
 30
0.0000
 41
1.2700
 42
1.2700
 43
1.0000
 50
0.0000
  0
INSERT
  8
18
  2
ROUNDV
 10
25.6000
 20
45.4000
 30
0.0000
 41
1.2700
 42
1.2700
 43
1.0000
 50
0.0000
  0
INSERT
  8
18
  2
ROUNDV
 10
25.6000
 20
80.6600
 30
0.0000
 41
1.2700
 42
1.2700
 43
1.0000
 50
0.0000
  0
INSERT
  8
18
  2
ROUNDV
 10
25.6000
 20
68.6000
 30
0.0000
 41
1.2700
 42
1.2700
 43
1.0000
 50
0.0000
  0
INSERT
  8
18
  2
ROUNDV
 10
63.0000
 20
61.2000
 30
0.0000
 41
1.0160
 42
1.0160
 43
1.0000
 50
0.0000
  0
INSERT
  8
18
  2
ROUNDV
 10
71.6000
 20
63.0000
 30
0.0000
 41
1.0160
 42
1.0160
 43
1.0000
 50
0.0000
  0
INSERT
  8
18
  2
ROUNDV
 10
70.0000
 20
56.0000
 30
0.0000
 41
1.0160
 42
1.0160
 43
1.0000
 50
0.0000
  0
INSERT
  8
18
  2
ROUNDV
 10
70.0000
 20
57.8000
 30
0.0000
 41
1.0160
 42
1.0160
 43
1.0000
 50
0.0000
  0
INSERT
  8
18
  2
ROUNDV
 10
71.0000
 20
69.6000
 30
0.0000
 41
1.0160
 42
1.0160
 43
1.0000
 50
0.0000
  0
INSERT
  8
18
  2
ROUNDV
 10
70.0000
 20
68.0000
 30
0.0000
 41
1.0160
 42
1.0160
 43
1.0000
 50
0.0000
  0
INSERT
  8
18
  2
ROUNDV
 10
55.2000
 20
65.2000
 30
0.0000
 41
1.0160
 42
1.0160
 43
1.0000
 50
0.0000
  0
INSERT
  8
18
  2
ROUNDV
 10
74.0000
 20
45.0000
 30
0.0000
 41
4.0000
 42
4.0000
 43
1.0000
 50
0.0000
  0
INSERT
  8
18
  2
ROUNDV
 10
81.4000
 20
33.0000
 30
0.0000
 41
1.0160
 42
1.0160
 43
1.0000
 50
0.0000
  0
INSERT
  8
18
  2
ROUNDV
 10
86.6000
 20
28.2000
 30
0.0000
 41
1.0160
 42
1.0160
 43
1.0000
 50
0.0000
  0
INSERT
  8
18
  2
ROUNDV
 10
81.0000
 20
8.8000
 30
0.0000
 41
1.0160
 42
1.0160
 43
1.0000
 50
0.0000
  0
INSERT
  8
18
  2
ROUNDV
 10
81.0000
 20
11.6000
 30
0.0000
 41
1.0160
 42
1.0160
 43
1.0000
 50
0.0000
  0
INSERT
  8
18
  2
ROUNDV
 10
42.2000
 20
55.8000
 30
0.0000
 41
1.2700
 42
1.2700
 43
1.0000
 50
0.0000
  0
INSERT
  8
18
  2
ROUNDV
 10
35.6000
 20
74.0000
 30
0.0000
 41
1.2700
 42
1.2700
 43
1.0000
 50
0.0000
  0
INSERT
  8
18
  2
ROUNDV
 10
80.0000
 20
22.6000
 30
0.0000
 41
1.0160
 42
1.0160
 43
1.0000
 50
0.0000
  0
INSERT
  8
18
  2
ROUNDV
 10
94.0000
 20
10.0000
 30
0.0000
 41
1.0160
 42
1.0160
 43
1.0000
 50
0.0000
  0
INSERT
  8
18
  2
ROUNDV
 10
86.0000
 20
8.6000
 30
0.0000
 41
1.0160
 42
1.0160
 43
1.0000
 50
0.0000
  0
INSERT
  8
18
  2
ROUNDV
 10
81.0000
 20
7.4000
 30
0.0000
 41
1.0160
 42
1.0160
 43
1.0000
 50
0.0000
  0
INSERT
  8
18
  2
ROUNDV
 10
82.6000
 20
30.6000
 30
0.0000
 41
1.0160
 42
1.0160
 43
1.0000
 50
0.0000
  0
INSERT
  8
18
  2
ROUNDV
 10
92.4000
 20
35.6000
 30
0.0000
 41
1.0160
 42
1.0160
 43
1.0000
 50
0.0000
  0
INSERT
  8
18
  2
ROUNDV
 10
91.4000
 20
30.4000
 30
0.0000
 41
1.0160
 42
1.0160
 43
1.0000
 50
0.0000
  0
INSERT
  8
18
  2
ROUNDV
 10
85.8000
 20
24.8000
 30
0.0000
 41
1.0160
 42
1.0160
 43
1.0000
 50
0.0000
  0
INSERT
  8
18
  2
ROUNDV
 10
89.2000
 20
9.6000
 30
0.0000
 41
1.0160
 42
1.0160
 43
1.0000
 50
0.0000
  0
INSERT
  8
18
  2
ROUNDV
 10
85.0000
 20
6.0000
 30
0.0000
 41
1.0160
 42
1.0160
 43
1.0000
 50
0.0000
  0
INSERT
  8
18
  2
ROUNDV
 10
81.0000
 20
10.2000
 30
0.0000
 41
1.0160
 42
1.0160
 43
1.0000
 50
0.0000
  0
INSERT
  8
18
  2
ROUNDV
 10
59.6000
 20
23.2000
 30
0.0000
 41
1.2700
 42
1.2700
 43
1.0000
 50
0.0000
  0
INSERT
  8
18
  2
ROUNDV
 10
41.8000
 20
9.0000
 30
0.0000
 41
1.2700
 42
1.2700
 43
1.0000
 50
0.0000
  0
INSERT
  8
18
  2
ROUNDV
 10
45.8000
 20
16.0000
 30
0.0000
 41
1.2700
 42
1.2700
 43
1.0000
 50
0.0000
  0
ENDSEC
  0
EOF
